<mxfile host="Electron" agent="Mozilla/5.0 (Windows NT 10.0; Win64; x64) AppleWebKit/537.36 (KHTML, like Gecko) draw.io/24.7.17 Chrome/128.0.6613.36 Electron/32.0.1 Safari/537.36" version="24.7.17">
  <diagram name="第 1 页" id="9lEerHl4fgUS5mECwNXF">
    <mxGraphModel dx="2704" dy="1790" grid="1" gridSize="10" guides="1" tooltips="1" connect="1" arrows="1" fold="1" page="1" pageScale="1" pageWidth="827" pageHeight="1169" math="0" shadow="0">
      <root>
        <mxCell id="0" />
        <mxCell id="1" parent="0" />
        <mxCell id="lJtLe1fUAaVO14vxoOOO-163" value="" style="rounded=0;whiteSpace=wrap;html=1;strokeColor=#67AB9F;strokeWidth=6;movable=0;resizable=0;rotatable=0;deletable=0;editable=0;locked=1;connectable=0;" parent="1" vertex="1">
          <mxGeometry x="-1650" width="2470" height="4860" as="geometry" />
        </mxCell>
        <mxCell id="lJtLe1fUAaVO14vxoOOO-10" value="main_task(0x128e0)" style="swimlane;fontStyle=0;childLayout=stackLayout;horizontal=1;startSize=26;fillColor=#d80073;horizontalStack=0;resizeParent=1;resizeParentMax=0;resizeLast=0;collapsible=1;marginBottom=0;whiteSpace=wrap;html=1;fontFamily=Courier New;fontColor=#ffffff;strokeColor=#A50040;" parent="1" vertex="1" collapsed="1">
          <mxGeometry x="-503" y="70" width="170" height="30" as="geometry">
            <mxRectangle x="-503" y="30" width="170" height="78" as="alternateBounds" />
          </mxGeometry>
        </mxCell>
        <mxCell id="lJtLe1fUAaVO14vxoOOO-11" value="+ tss&lt;span style=&quot;white-space: pre;&quot;&gt;&#x9;&lt;/span&gt;&amp;nbsp; &amp;nbsp;:&amp;nbsp; tss_t" style="text;strokeColor=none;fillColor=none;align=left;verticalAlign=top;spacingLeft=4;spacingRight=4;overflow=hidden;rotatable=0;points=[[0,0.5],[1,0.5]];portConstraint=eastwest;whiteSpace=wrap;html=1;fontFamily=Courier New;" parent="lJtLe1fUAaVO14vxoOOO-10" vertex="1">
          <mxGeometry y="26" width="170" height="26" as="geometry" />
        </mxCell>
        <mxCell id="lJtLe1fUAaVO14vxoOOO-12" value="+ selector : uint32_t" style="text;strokeColor=none;fillColor=none;align=left;verticalAlign=top;spacingLeft=4;spacingRight=4;overflow=hidden;rotatable=0;points=[[0,0.5],[1,0.5]];portConstraint=eastwest;whiteSpace=wrap;html=1;fontFamily=Courier New;" parent="lJtLe1fUAaVO14vxoOOO-10" vertex="1">
          <mxGeometry y="52" width="170" height="26" as="geometry" />
        </mxCell>
        <mxCell id="lJtLe1fUAaVO14vxoOOO-19" value="child_task(0x128e8)" style="swimlane;fontStyle=0;childLayout=stackLayout;horizontal=1;startSize=26;fillColor=#6a00ff;horizontalStack=0;resizeParent=1;resizeParentMax=0;resizeLast=0;collapsible=1;marginBottom=0;whiteSpace=wrap;html=1;fontFamily=Courier New;fontColor=#ffffff;strokeColor=#3700CC;" parent="1" vertex="1" collapsed="1">
          <mxGeometry x="210" y="60" width="180" height="30" as="geometry">
            <mxRectangle x="280" y="20" width="170" height="78" as="alternateBounds" />
          </mxGeometry>
        </mxCell>
        <mxCell id="lJtLe1fUAaVO14vxoOOO-20" value="+ tss&lt;span style=&quot;white-space: pre;&quot;&gt;&#x9;&lt;/span&gt;&amp;nbsp; &amp;nbsp;:&amp;nbsp; tss_t" style="text;strokeColor=none;fillColor=none;align=left;verticalAlign=top;spacingLeft=4;spacingRight=4;overflow=hidden;rotatable=0;points=[[0,0.5],[1,0.5]];portConstraint=eastwest;whiteSpace=wrap;html=1;fontFamily=Courier New;" parent="lJtLe1fUAaVO14vxoOOO-19" vertex="1">
          <mxGeometry y="26" width="170" height="26" as="geometry" />
        </mxCell>
        <mxCell id="lJtLe1fUAaVO14vxoOOO-21" value="+ selector : uint32_t" style="text;strokeColor=none;fillColor=none;align=left;verticalAlign=top;spacingLeft=4;spacingRight=4;overflow=hidden;rotatable=0;points=[[0,0.5],[1,0.5]];portConstraint=eastwest;whiteSpace=wrap;html=1;fontFamily=Courier New;" parent="lJtLe1fUAaVO14vxoOOO-19" vertex="1">
          <mxGeometry y="52" width="170" height="26" as="geometry" />
        </mxCell>
        <mxCell id="lJtLe1fUAaVO14vxoOOO-22" value="main_task-&amp;gt;stack" style="swimlane;fontStyle=0;childLayout=stackLayout;horizontal=1;startSize=26;fillColor=#d80073;horizontalStack=0;resizeParent=1;resizeParentMax=0;resizeLast=0;collapsible=1;marginBottom=0;whiteSpace=wrap;html=1;fontFamily=Courier New;fontColor=#ffffff;strokeColor=#A50040;" parent="1" vertex="1">
          <mxGeometry x="-320" y="170" width="280" height="156" as="geometry">
            <mxRectangle x="-320" y="130" width="140" height="30" as="alternateBounds" />
          </mxGeometry>
        </mxCell>
        <mxCell id="JwdgBAWlF_Tu4NYEgogl-12" value="+ esp - 0x04 : (entry) : --&amp;nbsp; &amp;nbsp; &amp;nbsp; &amp;nbsp; &amp;nbsp;←" style="text;strokeColor=none;fillColor=none;align=left;verticalAlign=top;spacingLeft=4;spacingRight=4;overflow=hidden;rotatable=0;points=[[0,0.5],[1,0.5]];portConstraint=eastwest;whiteSpace=wrap;html=1;fontFamily=Courier New;" parent="lJtLe1fUAaVO14vxoOOO-22" vertex="1">
          <mxGeometry y="26" width="280" height="26" as="geometry" />
        </mxCell>
        <mxCell id="lJtLe1fUAaVO14vxoOOO-23" value="+ esp - 0x08 : (ebp)&amp;nbsp; &amp;nbsp;: --" style="text;strokeColor=none;fillColor=none;align=left;verticalAlign=top;spacingLeft=4;spacingRight=4;overflow=hidden;rotatable=0;points=[[0,0.5],[1,0.5]];portConstraint=eastwest;whiteSpace=wrap;html=1;fontFamily=Courier New;" parent="lJtLe1fUAaVO14vxoOOO-22" vertex="1">
          <mxGeometry y="52" width="280" height="26" as="geometry" />
        </mxCell>
        <mxCell id="JwdgBAWlF_Tu4NYEgogl-4" value="+ esp - 0x0C : (ebx)&amp;nbsp; &amp;nbsp;: --" style="text;strokeColor=none;fillColor=none;align=left;verticalAlign=top;spacingLeft=4;spacingRight=4;overflow=hidden;rotatable=0;points=[[0,0.5],[1,0.5]];portConstraint=eastwest;whiteSpace=wrap;html=1;fontFamily=Courier New;" parent="lJtLe1fUAaVO14vxoOOO-22" vertex="1">
          <mxGeometry y="78" width="280" height="26" as="geometry" />
        </mxCell>
        <mxCell id="JwdgBAWlF_Tu4NYEgogl-3" value="+ esp - 0x10 : (esi)&amp;nbsp; &amp;nbsp;: --" style="text;strokeColor=none;fillColor=none;align=left;verticalAlign=top;spacingLeft=4;spacingRight=4;overflow=hidden;rotatable=0;points=[[0,0.5],[1,0.5]];portConstraint=eastwest;whiteSpace=wrap;html=1;fontFamily=Courier New;" parent="lJtLe1fUAaVO14vxoOOO-22" vertex="1">
          <mxGeometry y="104" width="280" height="26" as="geometry" />
        </mxCell>
        <mxCell id="JwdgBAWlF_Tu4NYEgogl-2" value="+ esp - 0x14 : (edi)&amp;nbsp; &amp;nbsp;: --" style="text;strokeColor=none;fillColor=none;align=left;verticalAlign=top;spacingLeft=4;spacingRight=4;overflow=hidden;rotatable=0;points=[[0,0.5],[1,0.5]];portConstraint=eastwest;whiteSpace=wrap;html=1;fontFamily=Courier New;" parent="lJtLe1fUAaVO14vxoOOO-22" vertex="1">
          <mxGeometry y="130" width="280" height="26" as="geometry" />
        </mxCell>
        <mxCell id="lJtLe1fUAaVO14vxoOOO-36" value="main_task-&amp;gt;selector" style="swimlane;fontStyle=0;childLayout=stackLayout;horizontal=1;startSize=26;fillColor=#d80073;horizontalStack=0;resizeParent=1;resizeParentMax=0;resizeLast=0;collapsible=1;marginBottom=0;whiteSpace=wrap;html=1;fontFamily=Courier New;fontColor=#ffffff;strokeColor=#A50040;" parent="1" vertex="1">
          <mxGeometry x="-690" y="170" width="180" height="52" as="geometry">
            <mxRectangle x="-690" y="130" width="180" height="30" as="alternateBounds" />
          </mxGeometry>
        </mxCell>
        <mxCell id="lJtLe1fUAaVO14vxoOOO-37" value="+ value : --" style="text;strokeColor=none;fillColor=none;align=left;verticalAlign=top;spacingLeft=4;spacingRight=4;overflow=hidden;rotatable=0;points=[[0,0.5],[1,0.5]];portConstraint=eastwest;whiteSpace=wrap;html=1;fontFamily=Courier New;" parent="lJtLe1fUAaVO14vxoOOO-36" vertex="1">
          <mxGeometry y="26" width="180" height="26" as="geometry" />
        </mxCell>
        <mxCell id="lJtLe1fUAaVO14vxoOOO-55" style="edgeStyle=orthogonalEdgeStyle;rounded=0;orthogonalLoop=1;jettySize=auto;html=1;entryX=0.5;entryY=0;entryDx=0;entryDy=0;fillColor=#6a00ff;strokeColor=#3700CC;" parent="1" source="lJtLe1fUAaVO14vxoOOO-20" target="lJtLe1fUAaVO14vxoOOO-57" edge="1">
          <mxGeometry relative="1" as="geometry">
            <mxPoint x="534" y="150" as="targetPoint" />
          </mxGeometry>
        </mxCell>
        <mxCell id="lJtLe1fUAaVO14vxoOOO-57" value="child_task-&amp;gt;stack(0x13900)" style="swimlane;fontStyle=0;childLayout=stackLayout;horizontal=1;startSize=26;fillColor=#6a00ff;horizontalStack=0;resizeParent=1;resizeParentMax=0;resizeLast=0;collapsible=1;marginBottom=0;whiteSpace=wrap;html=1;fontFamily=Courier New;fontColor=#ffffff;strokeColor=#3700CC;" parent="1" vertex="1">
          <mxGeometry x="400" y="170" width="280" height="156" as="geometry">
            <mxRectangle x="400" y="130" width="140" height="30" as="alternateBounds" />
          </mxGeometry>
        </mxCell>
        <mxCell id="JwdgBAWlF_Tu4NYEgogl-13" value="+ esp - 0x04 : (entry) : 0x102e7" style="text;strokeColor=none;fillColor=none;align=left;verticalAlign=top;spacingLeft=4;spacingRight=4;overflow=hidden;rotatable=0;points=[[0,0.5],[1,0.5]];portConstraint=eastwest;whiteSpace=wrap;html=1;fontFamily=Courier New;" parent="lJtLe1fUAaVO14vxoOOO-57" vertex="1">
          <mxGeometry y="26" width="280" height="26" as="geometry" />
        </mxCell>
        <mxCell id="JwdgBAWlF_Tu4NYEgogl-5" value="+ esp - 0x08 : (ebp)&amp;nbsp; &amp;nbsp;: 0" style="text;strokeColor=none;fillColor=none;align=left;verticalAlign=top;spacingLeft=4;spacingRight=4;overflow=hidden;rotatable=0;points=[[0,0.5],[1,0.5]];portConstraint=eastwest;whiteSpace=wrap;html=1;fontFamily=Courier New;" parent="lJtLe1fUAaVO14vxoOOO-57" vertex="1">
          <mxGeometry y="52" width="280" height="26" as="geometry" />
        </mxCell>
        <mxCell id="JwdgBAWlF_Tu4NYEgogl-7" value="+ esp - 0x0C : (ebx)&amp;nbsp; &amp;nbsp;: 1" style="text;strokeColor=none;fillColor=none;align=left;verticalAlign=top;spacingLeft=4;spacingRight=4;overflow=hidden;rotatable=0;points=[[0,0.5],[1,0.5]];portConstraint=eastwest;whiteSpace=wrap;html=1;fontFamily=Courier New;" parent="lJtLe1fUAaVO14vxoOOO-57" vertex="1">
          <mxGeometry y="78" width="280" height="26" as="geometry" />
        </mxCell>
        <mxCell id="JwdgBAWlF_Tu4NYEgogl-6" value="+ esp - 0x10 : (esi)&amp;nbsp; &amp;nbsp;: 2" style="text;strokeColor=none;fillColor=none;align=left;verticalAlign=top;spacingLeft=4;spacingRight=4;overflow=hidden;rotatable=0;points=[[0,0.5],[1,0.5]];portConstraint=eastwest;whiteSpace=wrap;html=1;fontFamily=Courier New;" parent="lJtLe1fUAaVO14vxoOOO-57" vertex="1">
          <mxGeometry y="104" width="280" height="26" as="geometry" />
        </mxCell>
        <mxCell id="lJtLe1fUAaVO14vxoOOO-58" value="+ esp - 0x14 : (edi)&amp;nbsp; &amp;nbsp;: 3&amp;nbsp; &amp;nbsp; &amp;nbsp; &amp;nbsp; &amp;nbsp; ←" style="text;strokeColor=none;fillColor=none;align=left;verticalAlign=top;spacingLeft=4;spacingRight=4;overflow=hidden;rotatable=0;points=[[0,0.5],[1,0.5]];portConstraint=eastwest;whiteSpace=wrap;html=1;fontFamily=Courier New;" parent="lJtLe1fUAaVO14vxoOOO-57" vertex="1">
          <mxGeometry y="130" width="280" height="26" as="geometry" />
        </mxCell>
        <mxCell id="lJtLe1fUAaVO14vxoOOO-80" value="child_task-&amp;gt;selector" style="swimlane;fontStyle=0;childLayout=stackLayout;horizontal=1;startSize=26;fillColor=#6a00ff;horizontalStack=0;resizeParent=1;resizeParentMax=0;resizeLast=0;collapsible=1;marginBottom=0;whiteSpace=wrap;html=1;fontFamily=Courier New;fontColor=#ffffff;strokeColor=#3700CC;" parent="1" vertex="1">
          <mxGeometry x="20" y="170" width="180" height="52" as="geometry">
            <mxRectangle x="20" y="130" width="180" height="30" as="alternateBounds" />
          </mxGeometry>
        </mxCell>
        <mxCell id="lJtLe1fUAaVO14vxoOOO-81" value="+ value : --" style="text;strokeColor=none;fillColor=none;align=left;verticalAlign=top;spacingLeft=4;spacingRight=4;overflow=hidden;rotatable=0;points=[[0,0.5],[1,0.5]];portConstraint=eastwest;whiteSpace=wrap;html=1;fontFamily=Courier New;" parent="lJtLe1fUAaVO14vxoOOO-80" vertex="1">
          <mxGeometry y="26" width="180" height="26" as="geometry" />
        </mxCell>
        <mxCell id="lJtLe1fUAaVO14vxoOOO-82" style="edgeStyle=orthogonalEdgeStyle;rounded=0;orthogonalLoop=1;jettySize=auto;html=1;entryX=0.5;entryY=0;entryDx=0;entryDy=0;fillColor=#6a00ff;strokeColor=#3700CC;" parent="1" source="lJtLe1fUAaVO14vxoOOO-21" target="lJtLe1fUAaVO14vxoOOO-80" edge="1">
          <mxGeometry relative="1" as="geometry" />
        </mxCell>
        <mxCell id="lJtLe1fUAaVO14vxoOOO-83" style="edgeStyle=orthogonalEdgeStyle;rounded=0;orthogonalLoop=1;jettySize=auto;html=1;entryX=0.5;entryY=0;entryDx=0;entryDy=0;fillColor=#d80073;strokeColor=#A50040;" parent="1" source="lJtLe1fUAaVO14vxoOOO-11" target="lJtLe1fUAaVO14vxoOOO-36" edge="1">
          <mxGeometry relative="1" as="geometry" />
        </mxCell>
        <mxCell id="lJtLe1fUAaVO14vxoOOO-84" style="edgeStyle=orthogonalEdgeStyle;rounded=0;orthogonalLoop=1;jettySize=auto;html=1;fillColor=#d80073;strokeColor=#A50040;" parent="1" source="lJtLe1fUAaVO14vxoOOO-12" target="lJtLe1fUAaVO14vxoOOO-22" edge="1">
          <mxGeometry relative="1" as="geometry" />
        </mxCell>
        <mxCell id="lJtLe1fUAaVO14vxoOOO-85" value="" style="endArrow=none;html=1;rounded=0;strokeWidth=4;fontColor=none;noLabel=1;strokeColor=#67AB9F;" parent="1" edge="1">
          <mxGeometry width="50" height="50" relative="1" as="geometry">
            <mxPoint x="-1650" y="360" as="sourcePoint" />
            <mxPoint x="820" y="360" as="targetPoint" />
          </mxGeometry>
        </mxCell>
        <mxCell id="lJtLe1fUAaVO14vxoOOO-86" value="任务初始化" style="text;html=1;align=center;verticalAlign=middle;whiteSpace=wrap;rounded=0;fontSize=20;fontColor=#67AB9F;" parent="1" vertex="1">
          <mxGeometry x="-827" y="320" width="117" height="40" as="geometry" />
        </mxCell>
        <mxCell id="lJtLe1fUAaVO14vxoOOO-87" value="" style="endArrow=none;html=1;rounded=0;strokeWidth=4;fontColor=none;noLabel=1;strokeColor=#67AB9F;exitX=0.333;exitY=0.001;exitDx=0;exitDy=0;exitPerimeter=0;" parent="1" edge="1">
          <mxGeometry width="50" height="50" relative="1" as="geometry">
            <mxPoint x="-827.4899999999998" y="1.1368683772161603e-13" as="sourcePoint" />
            <mxPoint x="-830" y="4860" as="targetPoint" />
          </mxGeometry>
        </mxCell>
        <mxCell id="lJtLe1fUAaVO14vxoOOO-101" value="" style="endArrow=none;html=1;rounded=0;strokeWidth=4;fontColor=none;noLabel=1;strokeColor=#67AB9F;" parent="1" edge="1">
          <mxGeometry width="50" height="50" relative="1" as="geometry">
            <mxPoint x="-1650" y="850" as="sourcePoint" />
            <mxPoint x="820" y="850" as="targetPoint" />
          </mxGeometry>
        </mxCell>
        <mxCell id="JwdgBAWlF_Tu4NYEgogl-16" value="&lt;div style=&quot;font-size: 23px;&quot;&gt;mov 4(%esp), %eax&lt;/div&gt;&lt;div style=&quot;font-size: 23px;&quot;&gt;mov 8(%esp), %edx&lt;/div&gt;" style="rounded=1;whiteSpace=wrap;html=1;align=center;verticalAlign=middle;fontFamily=Courier New;fontSize=23;fillColor=#181818;strokeWidth=2;strokeColor=#6666FF;fontStyle=1" parent="1" vertex="1">
          <mxGeometry x="-1190" y="900" width="310" height="80" as="geometry" />
        </mxCell>
        <mxCell id="JwdgBAWlF_Tu4NYEgogl-17" value="&lt;span style=&quot;color: rgba(204, 204, 204, 0.6); font-family: Consolas, &amp;quot;Courier New&amp;quot;, monospace; white-space-collapse: preserve; background-color: rgb(42, 40, 42); font-size: 25px;&quot;&gt;0x6e24:&#x9;0x00011a89&#x9;simple_task_switch&#39;s return address&lt;/span&gt;&lt;div style=&quot;font-size: 25px;&quot;&gt;&lt;div style=&quot;font-size: 25px;&quot;&gt;&lt;span style=&quot;background-color: rgb(42, 40, 42); color: rgba(204, 204, 204, 0.6); font-family: Consolas, &amp;quot;Courier New&amp;quot;, monospace; white-space-collapse: preserve; font-size: 25px;&quot;&gt;        0x000128e0&#x9;arg:from-&amp;gt;stack  (main_task-&amp;gt;stack)&lt;/span&gt;&lt;/div&gt;&lt;div style=&quot;font-size: 25px;&quot;&gt;&lt;span style=&quot;background-color: rgb(42, 40, 42); color: rgba(204, 204, 204, 0.6); font-family: Consolas, &amp;quot;Courier New&amp;quot;, monospace; white-space-collapse: preserve; font-size: 25px;&quot;&gt;        0x000138ec&#x9;arg:to-&amp;gt;stack   (child_task-&amp;gt;stack)&lt;/span&gt;&lt;/div&gt;&lt;div style=&quot;font-size: 25px;&quot;&gt;&lt;span style=&quot;background-color: rgb(42, 40, 42); color: rgba(204, 204, 204, 0.6); font-family: Consolas, &amp;quot;Courier New&amp;quot;, monospace; white-space-collapse: preserve; font-size: 25px;&quot;&gt;        0x00000000                                         &lt;/span&gt;&lt;/div&gt;&lt;span style=&quot;color: rgba(204, 204, 204, 0.6); font-family: Consolas, &amp;quot;Courier New&amp;quot;, monospace; white-space-collapse: preserve; background-color: rgb(42, 40, 42); font-size: 25px;&quot;&gt;0x6e34:&#x9;0x00000000&#x9;                                   &lt;/span&gt;&lt;/div&gt;&lt;div style=&quot;font-size: 25px;&quot;&gt;&lt;span style=&quot;color: rgba(204, 204, 204, 0.6); font-family: Consolas, &amp;quot;Courier New&amp;quot;, monospace; white-space-collapse: preserve; background-color: rgb(42, 40, 42); font-size: 25px;&quot;&gt;        0x00011a71&#x9;                                   &lt;/span&gt;&lt;/div&gt;&lt;div style=&quot;font-size: 25px;&quot;&gt;&lt;span style=&quot;color: rgba(204, 204, 204, 0.6); font-family: Consolas, &amp;quot;Courier New&amp;quot;, monospace; white-space-collapse: preserve; background-color: rgb(42, 40, 42); font-size: 25px;&quot;&gt;        0x00000008&#x9;                                   &lt;/span&gt;&lt;/div&gt;&lt;div style=&quot;font-size: 25px;&quot;&gt;&lt;span style=&quot;color: rgba(204, 204, 204, 0.6); font-family: Consolas, &amp;quot;Courier New&amp;quot;, monospace; white-space-collapse: preserve; background-color: rgb(42, 40, 42); font-size: 25px;&quot;&gt;        0x00006e70                                         &lt;br style=&quot;font-size: 25px;&quot;&gt;0x6e44:&#x9;0x0001035e&#x9;main_task_entry&#39;s return address   &lt;/span&gt;&lt;/div&gt;&lt;div style=&quot;font-size: 25px;&quot;&gt;&lt;span style=&quot;color: rgba(204, 204, 204, 0.6); font-family: Consolas, &amp;quot;Courier New&amp;quot;, monospace; white-space-collapse: preserve; background-color: rgb(42, 40, 42); font-size: 25px;&quot;&gt;        0x000128e0&#x9;                                   &lt;/span&gt;&lt;/div&gt;&lt;div style=&quot;font-size: 25px;&quot;&gt;&lt;span style=&quot;color: rgba(204, 204, 204, 0.6); font-family: Consolas, &amp;quot;Courier New&amp;quot;, monospace; white-space-collapse: preserve; background-color: rgb(42, 40, 42); font-size: 25px;&quot;&gt;        0x000128e8&#x9;                                   &lt;/span&gt;&lt;/div&gt;&lt;div style=&quot;font-size: 25px;&quot;&gt;&lt;span style=&quot;color: rgba(204, 204, 204, 0.6); font-family: Consolas, &amp;quot;Courier New&amp;quot;, monospace; white-space-collapse: preserve; background-color: rgb(42, 40, 42); font-size: 25px;&quot;&gt;        0x000003d5 &lt;/span&gt;&lt;span style=&quot;background-color: rgb(42, 40, 42); color: rgba(204, 204, 204, 0.6); font-family: Consolas, &amp;quot;Courier New&amp;quot;, monospace; white-space-collapse: preserve;&quot;&gt;                                        &lt;/span&gt;&lt;/div&gt;" style="rounded=0;whiteSpace=wrap;html=1;strokeColor=none;align=left;verticalAlign=middle;fontFamily=Courier New;fontSize=25;fontColor=default;fillColor=default;" parent="1" vertex="1">
          <mxGeometry x="-780" y="420" width="820" height="400" as="geometry" />
        </mxCell>
        <mxCell id="JwdgBAWlF_Tu4NYEgogl-18" value="&lt;div style=&quot;color: rgb(214, 214, 221); background-color: rgb(24, 24, 24); font-family: Consolas, &amp;quot;Courier New&amp;quot;, monospace; font-size: 23px; line-height: 36px; white-space: pre;&quot;&gt;&lt;span style=&quot;color: rgb(239, 239, 239); font-weight: bold; font-size: 23px;&quot;&gt;simple_switch&lt;/span&gt;(&lt;span style=&quot;color: rgb(131, 214, 197); font-size: 23px;&quot;&gt;&amp;amp;&lt;/span&gt;&lt;span style=&quot;font-style: italic; font-size: 23px;&quot;&gt;from&lt;/span&gt;-&amp;gt;&lt;span style=&quot;color: rgb(175, 156, 255); font-size: 23px;&quot;&gt;stack&lt;/span&gt;, &lt;span style=&quot;font-style: italic; font-size: 23px;&quot;&gt;to&lt;/span&gt;-&amp;gt;&lt;span style=&quot;color: rgb(175, 156, 255); font-size: 23px;&quot;&gt;stack&lt;/span&gt;);&lt;/div&gt;" style="rounded=1;whiteSpace=wrap;html=1;align=center;verticalAlign=middle;fontFamily=Courier New;fontSize=23;fillColor=#181818;strokeWidth=2;strokeColor=#6666FF;" parent="1" vertex="1">
          <mxGeometry x="-1420" y="420" width="540" height="80" as="geometry" />
        </mxCell>
        <mxCell id="JwdgBAWlF_Tu4NYEgogl-24" value="" style="group" parent="1" vertex="1" connectable="0">
          <mxGeometry x="-790" y="890" width="300" height="50" as="geometry" />
        </mxCell>
        <mxCell id="JwdgBAWlF_Tu4NYEgogl-21" value="EAX" style="rounded=0;whiteSpace=wrap;html=1;strokeColor=#B09500;align=center;verticalAlign=middle;fontFamily=Courier New;fontSize=24;fontColor=#000000;fillColor=#e3c800;fontStyle=1;strokeWidth=4;" parent="JwdgBAWlF_Tu4NYEgogl-24" vertex="1">
          <mxGeometry width="80" height="50" as="geometry" />
        </mxCell>
        <mxCell id="JwdgBAWlF_Tu4NYEgogl-23" value="0x128e0" style="rounded=0;whiteSpace=wrap;html=1;strokeColor=#B09500;align=center;verticalAlign=middle;fontFamily=Courier New;fontSize=24;fontColor=#000000;fillColor=#e3c800;fontStyle=1;strokeWidth=4;" parent="JwdgBAWlF_Tu4NYEgogl-24" vertex="1">
          <mxGeometry x="80" width="220" height="50" as="geometry" />
        </mxCell>
        <mxCell id="JwdgBAWlF_Tu4NYEgogl-25" value="" style="group" parent="1" vertex="1" connectable="0">
          <mxGeometry x="-790" y="940" width="300" height="50" as="geometry" />
        </mxCell>
        <mxCell id="JwdgBAWlF_Tu4NYEgogl-26" value="EDX" style="rounded=0;whiteSpace=wrap;html=1;strokeColor=#B09500;align=center;verticalAlign=middle;fontFamily=Courier New;fontSize=24;fontColor=#000000;fillColor=#e3c800;fontStyle=1;strokeWidth=4;" parent="JwdgBAWlF_Tu4NYEgogl-25" vertex="1">
          <mxGeometry width="80" height="50" as="geometry" />
        </mxCell>
        <mxCell id="JwdgBAWlF_Tu4NYEgogl-27" value="0x138ec" style="rounded=0;whiteSpace=wrap;html=1;strokeColor=#B09500;align=center;verticalAlign=middle;fontFamily=Courier New;fontSize=24;fontColor=#000000;fillColor=#e3c800;fontStyle=1;strokeWidth=4;" parent="JwdgBAWlF_Tu4NYEgogl-25" vertex="1">
          <mxGeometry x="80" width="220" height="50" as="geometry" />
        </mxCell>
        <mxCell id="JwdgBAWlF_Tu4NYEgogl-28" value="&lt;div style=&quot;font-size: 23px;&quot;&gt;&lt;div&gt;push %ebp&lt;/div&gt;&lt;div&gt;&lt;span style=&quot;background-color: initial;&quot;&gt;push %ebx&lt;/span&gt;&lt;/div&gt;&lt;div&gt;push %esi&lt;/div&gt;&lt;div&gt;push %edi&lt;/div&gt;&lt;/div&gt;" style="rounded=1;whiteSpace=wrap;html=1;align=center;verticalAlign=middle;fontFamily=Courier New;fontSize=23;fillColor=#181818;strokeWidth=2;strokeColor=#6666FF;fontStyle=1" parent="1" vertex="1">
          <mxGeometry x="-1060" y="1080" width="180" height="140" as="geometry" />
        </mxCell>
        <mxCell id="JwdgBAWlF_Tu4NYEgogl-29" value="" style="endArrow=none;html=1;rounded=0;strokeWidth=4;fontColor=none;noLabel=1;strokeColor=#67AB9F;" parent="1" edge="1">
          <mxGeometry width="50" height="50" relative="1" as="geometry">
            <mxPoint x="-1650" y="1030" as="sourcePoint" />
            <mxPoint x="820" y="1030" as="targetPoint" />
          </mxGeometry>
        </mxCell>
        <mxCell id="JwdgBAWlF_Tu4NYEgogl-33" value="&lt;div&gt;&lt;span style=&quot;color: rgba(204, 204, 204, 0.6); font-family: Consolas, &amp;quot;Courier New&amp;quot;, monospace; white-space-collapse: preserve; background-color: rgb(42, 40, 42); font-size: 25px;&quot;&gt;0x6e14: 0x00000000      edi                                &lt;/span&gt;&lt;/div&gt;&lt;div&gt;&lt;span style=&quot;color: rgba(204, 204, 204, 0.6); font-family: Consolas, &amp;quot;Courier New&amp;quot;, monospace; white-space-collapse: preserve; background-color: rgb(42, 40, 42); font-size: 25px;&quot;&gt;        0x00000000      esi                                &lt;/span&gt;&lt;/div&gt;&lt;div&gt;&lt;span style=&quot;color: rgba(204, 204, 204, 0.6); font-family: Consolas, &amp;quot;Courier New&amp;quot;, monospace; white-space-collapse: preserve; background-color: rgb(42, 40, 42); font-size: 25px;&quot;&gt;        0x00008000      ebx                                &lt;/span&gt;&lt;/div&gt;&lt;div&gt;&lt;span style=&quot;color: rgba(204, 204, 204, 0.6); font-family: Consolas, &amp;quot;Courier New&amp;quot;, monospace; white-space-collapse: preserve; background-color: rgb(42, 40, 42); font-size: 25px;&quot;&gt;        0x00006e40      ebp                                &lt;/span&gt;&lt;/div&gt;&lt;span style=&quot;color: rgba(204, 204, 204, 0.6); font-family: Consolas, &amp;quot;Courier New&amp;quot;, monospace; white-space-collapse: preserve; background-color: rgb(42, 40, 42); font-size: 25px;&quot;&gt;0x6e24:&#x9;0x00011a89&#x9;simple_task_switch&#39;s return address&lt;/span&gt;&lt;div style=&quot;font-size: 25px;&quot;&gt;&lt;div style=&quot;font-size: 25px;&quot;&gt;&lt;span style=&quot;background-color: rgb(42, 40, 42); color: rgba(204, 204, 204, 0.6); font-family: Consolas, &amp;quot;Courier New&amp;quot;, monospace; white-space-collapse: preserve; font-size: 25px;&quot;&gt;        0x000128e0&#x9;arg:from-&amp;gt;stack  (main_task-&amp;gt;stack)&lt;/span&gt;&lt;/div&gt;&lt;div style=&quot;font-size: 25px;&quot;&gt;&lt;span style=&quot;background-color: rgb(42, 40, 42); color: rgba(204, 204, 204, 0.6); font-family: Consolas, &amp;quot;Courier New&amp;quot;, monospace; white-space-collapse: preserve; font-size: 25px;&quot;&gt;        0x000138ec&#x9;arg:to-&amp;gt;stack   (child_task-&amp;gt;stack)&lt;/span&gt;&lt;/div&gt;&lt;div style=&quot;font-size: 25px;&quot;&gt;&lt;span style=&quot;background-color: rgb(42, 40, 42); color: rgba(204, 204, 204, 0.6); font-family: Consolas, &amp;quot;Courier New&amp;quot;, monospace; white-space-collapse: preserve; font-size: 25px;&quot;&gt;        0x00000028                                         &lt;/span&gt;&lt;/div&gt;&lt;span style=&quot;color: rgba(204, 204, 204, 0.6); font-family: Consolas, &amp;quot;Courier New&amp;quot;, monospace; white-space-collapse: preserve; background-color: rgb(42, 40, 42); font-size: 25px;&quot;&gt;0x6e34:&#x9;0x00000000&#x9;                                   &lt;/span&gt;&lt;/div&gt;&lt;div style=&quot;font-size: 25px;&quot;&gt;&lt;span style=&quot;color: rgba(204, 204, 204, 0.6); font-family: Consolas, &amp;quot;Courier New&amp;quot;, monospace; white-space-collapse: preserve; background-color: rgb(42, 40, 42); font-size: 25px;&quot;&gt;        0x00011a71&#x9;                                   &lt;/span&gt;&lt;/div&gt;&lt;div style=&quot;font-size: 25px;&quot;&gt;&lt;span style=&quot;color: rgba(204, 204, 204, 0.6); font-family: Consolas, &amp;quot;Courier New&amp;quot;, monospace; white-space-collapse: preserve; background-color: rgb(42, 40, 42); font-size: 25px;&quot;&gt;        0x00000008&#x9;                                   &lt;/span&gt;&lt;/div&gt;&lt;div style=&quot;font-size: 25px;&quot;&gt;&lt;span style=&quot;color: rgba(204, 204, 204, 0.6); font-family: Consolas, &amp;quot;Courier New&amp;quot;, monospace; white-space-collapse: preserve; background-color: rgb(42, 40, 42); font-size: 25px;&quot;&gt;        0x00006e70                                         &lt;/span&gt;&lt;br&gt;&lt;/div&gt;" style="rounded=0;whiteSpace=wrap;html=1;strokeColor=none;align=left;verticalAlign=middle;fontFamily=Courier New;fontSize=25;fontColor=default;fillColor=default;" parent="1" vertex="1">
          <mxGeometry x="-790" y="1080" width="820" height="400" as="geometry" />
        </mxCell>
        <mxCell id="JwdgBAWlF_Tu4NYEgogl-35" value="" style="endArrow=none;html=1;rounded=0;strokeWidth=4;fontColor=none;noLabel=1;strokeColor=#67AB9F;" parent="1" edge="1">
          <mxGeometry width="50" height="50" relative="1" as="geometry">
            <mxPoint x="-1650" y="1530" as="sourcePoint" />
            <mxPoint x="820" y="1530" as="targetPoint" />
          </mxGeometry>
        </mxCell>
        <mxCell id="JwdgBAWlF_Tu4NYEgogl-36" value="&lt;div style=&quot;font-size: 23px;&quot;&gt;&amp;nbsp; mov %esp, (%eax)&lt;br&gt;&lt;/div&gt;" style="rounded=1;whiteSpace=wrap;html=1;align=center;verticalAlign=middle;fontFamily=Courier New;fontSize=23;fillColor=#181818;strokeWidth=2;strokeColor=#6666FF;fontStyle=1" parent="1" vertex="1">
          <mxGeometry x="-1190" y="1610" width="310" height="80" as="geometry" />
        </mxCell>
        <mxCell id="JwdgBAWlF_Tu4NYEgogl-69" style="edgeStyle=orthogonalEdgeStyle;rounded=0;orthogonalLoop=1;jettySize=auto;html=1;entryX=0;entryY=0.5;entryDx=0;entryDy=0;fontFamily=Courier New;fontSize=20;fontColor=default;" parent="1" source="JwdgBAWlF_Tu4NYEgogl-37" target="JwdgBAWlF_Tu4NYEgogl-61" edge="1">
          <mxGeometry relative="1" as="geometry" />
        </mxCell>
        <mxCell id="JwdgBAWlF_Tu4NYEgogl-37" value="" style="shape=table;startSize=0;container=1;collapsible=0;childLayout=tableLayout;fontSize=16;rounded=0;align=center;verticalAlign=middle;fontFamily=Courier New;strokeWidth=2;" parent="1" vertex="1">
          <mxGeometry x="-790" y="1610" width="490" height="90" as="geometry" />
        </mxCell>
        <mxCell id="JwdgBAWlF_Tu4NYEgogl-38" value="" style="shape=tableRow;horizontal=0;startSize=0;swimlaneHead=0;swimlaneBody=0;strokeColor=inherit;top=0;left=0;bottom=0;right=0;collapsible=0;dropTarget=0;fillColor=none;points=[[0,0.5],[1,0.5]];portConstraint=eastwest;fontSize=16;rounded=0;align=center;verticalAlign=middle;fontFamily=Courier New;fontColor=default;" parent="JwdgBAWlF_Tu4NYEgogl-37" vertex="1">
          <mxGeometry width="490" height="27" as="geometry" />
        </mxCell>
        <mxCell id="JwdgBAWlF_Tu4NYEgogl-39" value="0x128e0" style="shape=partialRectangle;html=1;whiteSpace=wrap;connectable=0;strokeColor=inherit;overflow=hidden;fillColor=none;top=0;left=0;bottom=0;right=0;pointerEvents=1;fontSize=16;rounded=0;align=center;verticalAlign=middle;fontFamily=Courier New;fontColor=default;" parent="JwdgBAWlF_Tu4NYEgogl-38" vertex="1">
          <mxGeometry width="90" height="27" as="geometry">
            <mxRectangle width="90" height="27" as="alternateBounds" />
          </mxGeometry>
        </mxCell>
        <mxCell id="JwdgBAWlF_Tu4NYEgogl-40" value="0" style="shape=partialRectangle;html=1;whiteSpace=wrap;connectable=0;strokeColor=inherit;overflow=hidden;fillColor=none;top=0;left=0;bottom=0;right=0;pointerEvents=1;fontSize=16;rounded=0;align=center;verticalAlign=middle;fontFamily=Courier New;fontColor=#FF9999;" parent="JwdgBAWlF_Tu4NYEgogl-38" vertex="1">
          <mxGeometry x="90" width="90" height="27" as="geometry">
            <mxRectangle width="90" height="27" as="alternateBounds" />
          </mxGeometry>
        </mxCell>
        <mxCell id="JwdgBAWlF_Tu4NYEgogl-52" value="&lt;font style=&quot;font-size: 14px;&quot;&gt;main_task-&amp;gt;stack&lt;/font&gt;" style="shape=partialRectangle;html=1;whiteSpace=wrap;connectable=0;strokeColor=inherit;overflow=hidden;fillColor=none;top=0;left=0;bottom=0;right=0;pointerEvents=1;fontSize=16;rounded=0;align=center;verticalAlign=middle;fontFamily=Courier New;fontColor=#FFD966;" parent="JwdgBAWlF_Tu4NYEgogl-38" vertex="1">
          <mxGeometry x="180" width="310" height="27" as="geometry">
            <mxRectangle width="310" height="27" as="alternateBounds" />
          </mxGeometry>
        </mxCell>
        <mxCell id="JwdgBAWlF_Tu4NYEgogl-42" value="" style="shape=tableRow;horizontal=0;startSize=0;swimlaneHead=0;swimlaneBody=0;strokeColor=inherit;top=0;left=0;bottom=0;right=0;collapsible=0;dropTarget=0;fillColor=none;points=[[0,0.5],[1,0.5]];portConstraint=eastwest;fontSize=16;rounded=0;align=center;verticalAlign=middle;fontFamily=Courier New;fontColor=default;" parent="JwdgBAWlF_Tu4NYEgogl-37" vertex="1">
          <mxGeometry y="27" width="490" height="32" as="geometry" />
        </mxCell>
        <mxCell id="JwdgBAWlF_Tu4NYEgogl-43" value="0x128dc" style="shape=partialRectangle;html=1;whiteSpace=wrap;connectable=0;strokeColor=inherit;overflow=hidden;fillColor=none;top=0;left=0;bottom=0;right=0;pointerEvents=1;fontSize=16;rounded=0;align=center;verticalAlign=middle;fontFamily=Courier New;fontColor=default;" parent="JwdgBAWlF_Tu4NYEgogl-42" vertex="1">
          <mxGeometry width="90" height="32" as="geometry">
            <mxRectangle width="90" height="32" as="alternateBounds" />
          </mxGeometry>
        </mxCell>
        <mxCell id="JwdgBAWlF_Tu4NYEgogl-44" value="0" style="shape=partialRectangle;html=1;whiteSpace=wrap;connectable=0;strokeColor=inherit;overflow=hidden;fillColor=none;top=0;left=0;bottom=0;right=0;pointerEvents=1;fontSize=16;rounded=0;align=center;verticalAlign=middle;fontFamily=Courier New;fontColor=default;" parent="JwdgBAWlF_Tu4NYEgogl-42" vertex="1">
          <mxGeometry x="90" width="90" height="32" as="geometry">
            <mxRectangle width="90" height="32" as="alternateBounds" />
          </mxGeometry>
        </mxCell>
        <mxCell id="JwdgBAWlF_Tu4NYEgogl-53" value="..." style="shape=partialRectangle;html=1;whiteSpace=wrap;connectable=0;strokeColor=inherit;overflow=hidden;fillColor=none;top=0;left=0;bottom=0;right=0;pointerEvents=1;fontSize=16;rounded=0;align=center;verticalAlign=middle;fontFamily=Courier New;fontColor=default;" parent="JwdgBAWlF_Tu4NYEgogl-42" vertex="1">
          <mxGeometry x="180" width="310" height="32" as="geometry">
            <mxRectangle width="310" height="32" as="alternateBounds" />
          </mxGeometry>
        </mxCell>
        <mxCell id="JwdgBAWlF_Tu4NYEgogl-46" value="" style="shape=tableRow;horizontal=0;startSize=0;swimlaneHead=0;swimlaneBody=0;strokeColor=inherit;top=0;left=0;bottom=0;right=0;collapsible=0;dropTarget=0;fillColor=none;points=[[0,0.5],[1,0.5]];portConstraint=eastwest;fontSize=16;rounded=0;align=center;verticalAlign=middle;fontFamily=Courier New;fontColor=default;" parent="JwdgBAWlF_Tu4NYEgogl-37" vertex="1">
          <mxGeometry y="59" width="490" height="31" as="geometry" />
        </mxCell>
        <mxCell id="JwdgBAWlF_Tu4NYEgogl-47" value="0x128d8" style="shape=partialRectangle;html=1;whiteSpace=wrap;connectable=0;strokeColor=inherit;overflow=hidden;fillColor=none;top=0;left=0;bottom=0;right=0;pointerEvents=1;fontSize=16;rounded=0;align=center;verticalAlign=middle;fontFamily=Courier New;fontColor=default;" parent="JwdgBAWlF_Tu4NYEgogl-46" vertex="1">
          <mxGeometry width="90" height="31" as="geometry">
            <mxRectangle width="90" height="31" as="alternateBounds" />
          </mxGeometry>
        </mxCell>
        <mxCell id="JwdgBAWlF_Tu4NYEgogl-48" value="0" style="shape=partialRectangle;html=1;whiteSpace=wrap;connectable=0;strokeColor=inherit;overflow=hidden;fillColor=none;top=0;left=0;bottom=0;right=0;pointerEvents=1;fontSize=16;rounded=0;align=center;verticalAlign=middle;fontFamily=Courier New;fontColor=default;" parent="JwdgBAWlF_Tu4NYEgogl-46" vertex="1">
          <mxGeometry x="90" width="90" height="31" as="geometry">
            <mxRectangle width="90" height="31" as="alternateBounds" />
          </mxGeometry>
        </mxCell>
        <mxCell id="JwdgBAWlF_Tu4NYEgogl-54" value="..." style="shape=partialRectangle;html=1;whiteSpace=wrap;connectable=0;strokeColor=inherit;overflow=hidden;fillColor=none;top=0;left=0;bottom=0;right=0;pointerEvents=1;fontSize=16;rounded=0;align=center;verticalAlign=middle;fontFamily=Courier New;fontColor=default;" parent="JwdgBAWlF_Tu4NYEgogl-46" vertex="1">
          <mxGeometry x="180" width="310" height="31" as="geometry">
            <mxRectangle width="310" height="31" as="alternateBounds" />
          </mxGeometry>
        </mxCell>
        <mxCell id="JwdgBAWlF_Tu4NYEgogl-51" value="内存" style="text;strokeColor=none;fillColor=none;html=1;fontSize=20;fontStyle=1;verticalAlign=middle;align=center;fontFamily=Courier New;fontColor=default;" parent="1" vertex="1">
          <mxGeometry x="-790" y="1570" width="1150" height="40" as="geometry" />
        </mxCell>
        <mxCell id="JwdgBAWlF_Tu4NYEgogl-56" value="" style="shape=table;startSize=0;container=1;collapsible=0;childLayout=tableLayout;fontSize=16;rounded=0;align=center;verticalAlign=middle;fontFamily=Courier New;strokeWidth=2;" parent="1" vertex="1">
          <mxGeometry x="-130" y="1611" width="490" height="90" as="geometry" />
        </mxCell>
        <mxCell id="JwdgBAWlF_Tu4NYEgogl-57" value="" style="shape=tableRow;horizontal=0;startSize=0;swimlaneHead=0;swimlaneBody=0;strokeColor=inherit;top=0;left=0;bottom=0;right=0;collapsible=0;dropTarget=0;fillColor=none;points=[[0,0.5],[1,0.5]];portConstraint=eastwest;fontSize=16;rounded=0;align=center;verticalAlign=middle;fontFamily=Courier New;fontColor=default;" parent="JwdgBAWlF_Tu4NYEgogl-56" vertex="1">
          <mxGeometry width="490" height="27" as="geometry" />
        </mxCell>
        <mxCell id="JwdgBAWlF_Tu4NYEgogl-58" value="0x128e0" style="shape=partialRectangle;html=1;whiteSpace=wrap;connectable=0;strokeColor=inherit;overflow=hidden;fillColor=none;top=0;left=0;bottom=0;right=0;pointerEvents=1;fontSize=16;rounded=0;align=center;verticalAlign=middle;fontFamily=Courier New;fontColor=default;" parent="JwdgBAWlF_Tu4NYEgogl-57" vertex="1">
          <mxGeometry width="90" height="27" as="geometry">
            <mxRectangle width="90" height="27" as="alternateBounds" />
          </mxGeometry>
        </mxCell>
        <mxCell id="JwdgBAWlF_Tu4NYEgogl-59" value="0x6e14" style="shape=partialRectangle;html=1;whiteSpace=wrap;connectable=0;strokeColor=inherit;overflow=hidden;fillColor=none;top=0;left=0;bottom=0;right=0;pointerEvents=1;fontSize=16;rounded=0;align=center;verticalAlign=middle;fontFamily=Courier New;fontColor=#FF9999;" parent="JwdgBAWlF_Tu4NYEgogl-57" vertex="1">
          <mxGeometry x="90" width="90" height="27" as="geometry">
            <mxRectangle width="90" height="27" as="alternateBounds" />
          </mxGeometry>
        </mxCell>
        <mxCell id="JwdgBAWlF_Tu4NYEgogl-60" value="&lt;font style=&quot;font-size: 14px;&quot;&gt;main_task-&amp;gt;stack&lt;/font&gt;" style="shape=partialRectangle;html=1;whiteSpace=wrap;connectable=0;strokeColor=inherit;overflow=hidden;fillColor=none;top=0;left=0;bottom=0;right=0;pointerEvents=1;fontSize=16;rounded=0;align=center;verticalAlign=middle;fontFamily=Courier New;fontColor=#FFD966;" parent="JwdgBAWlF_Tu4NYEgogl-57" vertex="1">
          <mxGeometry x="180" width="310" height="27" as="geometry">
            <mxRectangle width="310" height="27" as="alternateBounds" />
          </mxGeometry>
        </mxCell>
        <mxCell id="JwdgBAWlF_Tu4NYEgogl-61" value="" style="shape=tableRow;horizontal=0;startSize=0;swimlaneHead=0;swimlaneBody=0;strokeColor=inherit;top=0;left=0;bottom=0;right=0;collapsible=0;dropTarget=0;fillColor=none;points=[[0,0.5],[1,0.5]];portConstraint=eastwest;fontSize=16;rounded=0;align=center;verticalAlign=middle;fontFamily=Courier New;fontColor=default;" parent="JwdgBAWlF_Tu4NYEgogl-56" vertex="1">
          <mxGeometry y="27" width="490" height="32" as="geometry" />
        </mxCell>
        <mxCell id="JwdgBAWlF_Tu4NYEgogl-62" value="0x128dc" style="shape=partialRectangle;html=1;whiteSpace=wrap;connectable=0;strokeColor=inherit;overflow=hidden;fillColor=none;top=0;left=0;bottom=0;right=0;pointerEvents=1;fontSize=16;rounded=0;align=center;verticalAlign=middle;fontFamily=Courier New;fontColor=default;" parent="JwdgBAWlF_Tu4NYEgogl-61" vertex="1">
          <mxGeometry width="90" height="32" as="geometry">
            <mxRectangle width="90" height="32" as="alternateBounds" />
          </mxGeometry>
        </mxCell>
        <mxCell id="JwdgBAWlF_Tu4NYEgogl-63" value="0" style="shape=partialRectangle;html=1;whiteSpace=wrap;connectable=0;strokeColor=inherit;overflow=hidden;fillColor=none;top=0;left=0;bottom=0;right=0;pointerEvents=1;fontSize=16;rounded=0;align=center;verticalAlign=middle;fontFamily=Courier New;fontColor=default;" parent="JwdgBAWlF_Tu4NYEgogl-61" vertex="1">
          <mxGeometry x="90" width="90" height="32" as="geometry">
            <mxRectangle width="90" height="32" as="alternateBounds" />
          </mxGeometry>
        </mxCell>
        <mxCell id="JwdgBAWlF_Tu4NYEgogl-64" value="..." style="shape=partialRectangle;html=1;whiteSpace=wrap;connectable=0;strokeColor=inherit;overflow=hidden;fillColor=none;top=0;left=0;bottom=0;right=0;pointerEvents=1;fontSize=16;rounded=0;align=center;verticalAlign=middle;fontFamily=Courier New;fontColor=default;" parent="JwdgBAWlF_Tu4NYEgogl-61" vertex="1">
          <mxGeometry x="180" width="310" height="32" as="geometry">
            <mxRectangle width="310" height="32" as="alternateBounds" />
          </mxGeometry>
        </mxCell>
        <mxCell id="JwdgBAWlF_Tu4NYEgogl-65" value="" style="shape=tableRow;horizontal=0;startSize=0;swimlaneHead=0;swimlaneBody=0;strokeColor=inherit;top=0;left=0;bottom=0;right=0;collapsible=0;dropTarget=0;fillColor=none;points=[[0,0.5],[1,0.5]];portConstraint=eastwest;fontSize=16;rounded=0;align=center;verticalAlign=middle;fontFamily=Courier New;fontColor=default;" parent="JwdgBAWlF_Tu4NYEgogl-56" vertex="1">
          <mxGeometry y="59" width="490" height="31" as="geometry" />
        </mxCell>
        <mxCell id="JwdgBAWlF_Tu4NYEgogl-66" value="0x128d8" style="shape=partialRectangle;html=1;whiteSpace=wrap;connectable=0;strokeColor=inherit;overflow=hidden;fillColor=none;top=0;left=0;bottom=0;right=0;pointerEvents=1;fontSize=16;rounded=0;align=center;verticalAlign=middle;fontFamily=Courier New;fontColor=default;" parent="JwdgBAWlF_Tu4NYEgogl-65" vertex="1">
          <mxGeometry width="90" height="31" as="geometry">
            <mxRectangle width="90" height="31" as="alternateBounds" />
          </mxGeometry>
        </mxCell>
        <mxCell id="JwdgBAWlF_Tu4NYEgogl-67" value="0" style="shape=partialRectangle;html=1;whiteSpace=wrap;connectable=0;strokeColor=inherit;overflow=hidden;fillColor=none;top=0;left=0;bottom=0;right=0;pointerEvents=1;fontSize=16;rounded=0;align=center;verticalAlign=middle;fontFamily=Courier New;fontColor=default;" parent="JwdgBAWlF_Tu4NYEgogl-65" vertex="1">
          <mxGeometry x="90" width="90" height="31" as="geometry">
            <mxRectangle width="90" height="31" as="alternateBounds" />
          </mxGeometry>
        </mxCell>
        <mxCell id="JwdgBAWlF_Tu4NYEgogl-68" value="..." style="shape=partialRectangle;html=1;whiteSpace=wrap;connectable=0;strokeColor=inherit;overflow=hidden;fillColor=none;top=0;left=0;bottom=0;right=0;pointerEvents=1;fontSize=16;rounded=0;align=center;verticalAlign=middle;fontFamily=Courier New;fontColor=default;" parent="JwdgBAWlF_Tu4NYEgogl-65" vertex="1">
          <mxGeometry x="180" width="310" height="31" as="geometry">
            <mxRectangle width="310" height="31" as="alternateBounds" />
          </mxGeometry>
        </mxCell>
        <mxCell id="JwdgBAWlF_Tu4NYEgogl-70" value="&lt;div style=&quot;font-size: 23px;&quot;&gt;&lt;div&gt;&amp;nbsp;&amp;nbsp;&lt;span style=&quot;background-color: initial;&quot;&gt;mov %edx, %esp&lt;/span&gt;&lt;/div&gt;&lt;/div&gt;" style="rounded=1;whiteSpace=wrap;html=1;align=center;verticalAlign=middle;fontFamily=Courier New;fontSize=23;fillColor=#181818;strokeWidth=2;strokeColor=#6666FF;fontStyle=1" parent="1" vertex="1">
          <mxGeometry x="-1190" y="1830" width="310" height="80" as="geometry" />
        </mxCell>
        <mxCell id="JwdgBAWlF_Tu4NYEgogl-71" value="" style="endArrow=none;html=1;rounded=0;strokeWidth=4;fontColor=none;noLabel=1;strokeColor=#67AB9F;" parent="1" edge="1">
          <mxGeometry width="50" height="50" relative="1" as="geometry">
            <mxPoint x="-1650" y="1750" as="sourcePoint" />
            <mxPoint x="820" y="1750" as="targetPoint" />
          </mxGeometry>
        </mxCell>
        <mxCell id="JwdgBAWlF_Tu4NYEgogl-72" value="将main_task的stack地址设置为&lt;div&gt;当前的栈顶的地址&lt;/div&gt;&lt;div&gt;也就是esp的值&lt;/div&gt;" style="shape=note;whiteSpace=wrap;html=1;backgroundOutline=1;darkOpacity=0.05;rounded=0;strokeColor=#BD7000;align=center;verticalAlign=middle;fontFamily=Courier New;fontSize=20;fontColor=#000000;fillColor=#f0a30a;" parent="1" vertex="1">
          <mxGeometry x="400" y="1570" width="380" height="140" as="geometry" />
        </mxCell>
        <mxCell id="JwdgBAWlF_Tu4NYEgogl-75" style="edgeStyle=orthogonalEdgeStyle;rounded=0;orthogonalLoop=1;jettySize=auto;html=1;fontFamily=Courier New;fontSize=20;fontColor=default;" parent="1" source="JwdgBAWlF_Tu4NYEgogl-73" target="JwdgBAWlF_Tu4NYEgogl-74" edge="1">
          <mxGeometry relative="1" as="geometry" />
        </mxCell>
        <mxCell id="JwdgBAWlF_Tu4NYEgogl-73" value="&lt;span style=&quot;color: rgba(204, 204, 204, 0.6); font-family: Consolas, &amp;quot;Courier New&amp;quot;, monospace; font-size: 25px; text-align: start; white-space-collapse: preserve; background-color: rgb(42, 40, 42);&quot;&gt;0x6e14:&#x9;0x00000000&#x9;0x00000000&#x9;0x00008000&#x9;0x00006e40&lt;br style=&quot;font-size: 25px;&quot;&gt;0x6e24:&#x9;0x00011a89&#x9;0x000128e0&#x9;0x000138ec&#x9;0x00000000&lt;br style=&quot;font-size: 25px;&quot;&gt;0x6e34:&#x9;0x00006a3c&#x9;0x0001243a&#x9;0x00000008&#x9;0x00006e70&lt;br style=&quot;font-size: 25px;&quot;&gt;0x6e44:&#x9;0x0001035e&#x9;0x000128e0&#x9;0x000128e8&#x9;0x000003d5&lt;/span&gt;" style="rounded=0;whiteSpace=wrap;html=1;strokeColor=none;align=center;verticalAlign=middle;fontFamily=Courier New;fontSize=25;fontColor=default;fillColor=default;" parent="1" vertex="1">
          <mxGeometry x="-575" y="1800" width="920" height="140" as="geometry" />
        </mxCell>
        <mxCell id="JwdgBAWlF_Tu4NYEgogl-74" value="&lt;span style=&quot;color: rgba(204, 204, 204, 0.6); font-family: Consolas, &amp;quot;Courier New&amp;quot;, monospace; text-align: start; white-space-collapse: preserve; background-color: rgb(42, 40, 42);&quot;&gt;0x138ec &amp;lt;child_task_stack+4076&amp;gt;:&#x9;0x00000003&#x9;0x00000002&#x9;0x00000001&#x9;0x00000000&lt;br/&gt;0x138fc &amp;lt;child_task_stack+4092&amp;gt;:&#x9;0x000102e7&#x9;0x00009200&#x9;0x00000000&#x9;0x00000000&lt;/span&gt;" style="rounded=0;whiteSpace=wrap;html=1;strokeColor=none;align=center;verticalAlign=middle;fontFamily=Courier New;fontSize=25;fontColor=default;fillColor=default;" parent="1" vertex="1">
          <mxGeometry x="-800" y="2030" width="1370" height="90" as="geometry" />
        </mxCell>
        <mxCell id="JwdgBAWlF_Tu4NYEgogl-76" value="更改esp寄存器的值&lt;div&gt;完成了栈空间的切换&lt;/div&gt;" style="shape=note;whiteSpace=wrap;html=1;backgroundOutline=1;darkOpacity=0.05;rounded=0;strokeColor=#BD7000;align=center;verticalAlign=middle;fontFamily=Courier New;fontSize=20;fontColor=#000000;fillColor=#f0a30a;" parent="1" vertex="1">
          <mxGeometry x="400" y="1810" width="380" height="140" as="geometry" />
        </mxCell>
        <mxCell id="JwdgBAWlF_Tu4NYEgogl-77" value="" style="endArrow=none;html=1;rounded=0;strokeWidth=4;fontColor=none;noLabel=1;strokeColor=#67AB9F;" parent="1" edge="1">
          <mxGeometry width="50" height="50" relative="1" as="geometry">
            <mxPoint x="-1650" y="2150" as="sourcePoint" />
            <mxPoint x="820" y="2150" as="targetPoint" />
          </mxGeometry>
        </mxCell>
        <mxCell id="JwdgBAWlF_Tu4NYEgogl-78" value="&lt;div style=&quot;font-size: 23px;&quot;&gt;&lt;div style=&quot;font-size: 23px;&quot;&gt;pop %edi&lt;/div&gt;&lt;div style=&quot;font-size: 23px;&quot;&gt;pop %esi&lt;/div&gt;&lt;div style=&quot;font-size: 23px;&quot;&gt;pop %ebx&lt;/div&gt;&lt;div style=&quot;font-size: 23px;&quot;&gt;pop %ebp&lt;/div&gt;&lt;/div&gt;" style="rounded=1;whiteSpace=wrap;html=1;align=center;verticalAlign=middle;fontFamily=Courier New;fontSize=23;fillColor=#181818;strokeWidth=2;strokeColor=#6666FF;fontStyle=1" parent="1" vertex="1">
          <mxGeometry x="-1110" y="2220" width="220" height="170" as="geometry" />
        </mxCell>
        <mxCell id="JwdgBAWlF_Tu4NYEgogl-82" value="" style="group" parent="1" vertex="1" connectable="0">
          <mxGeometry x="-780" y="2210" width="300" height="50" as="geometry" />
        </mxCell>
        <mxCell id="JwdgBAWlF_Tu4NYEgogl-83" value="EDI" style="rounded=0;whiteSpace=wrap;html=1;strokeColor=#B09500;align=center;verticalAlign=middle;fontFamily=Courier New;fontSize=24;fontColor=#000000;fillColor=#e3c800;fontStyle=1;strokeWidth=4;" parent="JwdgBAWlF_Tu4NYEgogl-82" vertex="1">
          <mxGeometry width="80" height="50" as="geometry" />
        </mxCell>
        <mxCell id="JwdgBAWlF_Tu4NYEgogl-84" value="3" style="rounded=0;whiteSpace=wrap;html=1;strokeColor=#B09500;align=center;verticalAlign=middle;fontFamily=Courier New;fontSize=24;fontColor=#000000;fillColor=#e3c800;fontStyle=1;strokeWidth=4;" parent="JwdgBAWlF_Tu4NYEgogl-82" vertex="1">
          <mxGeometry x="80" width="220" height="50" as="geometry" />
        </mxCell>
        <mxCell id="JwdgBAWlF_Tu4NYEgogl-85" value="2" style="group" parent="1" vertex="1" connectable="0">
          <mxGeometry x="-780" y="2260" width="300" height="50" as="geometry" />
        </mxCell>
        <mxCell id="JwdgBAWlF_Tu4NYEgogl-86" value="ESI" style="rounded=0;whiteSpace=wrap;html=1;strokeColor=#B09500;align=center;verticalAlign=middle;fontFamily=Courier New;fontSize=24;fontColor=#000000;fillColor=#e3c800;fontStyle=1;strokeWidth=4;" parent="JwdgBAWlF_Tu4NYEgogl-85" vertex="1">
          <mxGeometry width="80" height="50" as="geometry" />
        </mxCell>
        <mxCell id="JwdgBAWlF_Tu4NYEgogl-87" value="2" style="rounded=0;whiteSpace=wrap;html=1;strokeColor=#B09500;align=center;verticalAlign=middle;fontFamily=Courier New;fontSize=24;fontColor=#000000;fillColor=#e3c800;fontStyle=1;strokeWidth=4;" parent="JwdgBAWlF_Tu4NYEgogl-85" vertex="1">
          <mxGeometry x="80" width="220" height="50" as="geometry" />
        </mxCell>
        <mxCell id="JwdgBAWlF_Tu4NYEgogl-88" value="" style="group" parent="1" vertex="1" connectable="0">
          <mxGeometry x="-780" y="2310" width="300" height="50" as="geometry" />
        </mxCell>
        <mxCell id="JwdgBAWlF_Tu4NYEgogl-89" value="EBX" style="rounded=0;whiteSpace=wrap;html=1;strokeColor=#B09500;align=center;verticalAlign=middle;fontFamily=Courier New;fontSize=24;fontColor=#000000;fillColor=#e3c800;fontStyle=1;strokeWidth=4;" parent="JwdgBAWlF_Tu4NYEgogl-88" vertex="1">
          <mxGeometry width="80" height="50" as="geometry" />
        </mxCell>
        <mxCell id="JwdgBAWlF_Tu4NYEgogl-90" value="1" style="rounded=0;whiteSpace=wrap;html=1;strokeColor=#B09500;align=center;verticalAlign=middle;fontFamily=Courier New;fontSize=24;fontColor=#000000;fillColor=#e3c800;fontStyle=1;strokeWidth=4;" parent="JwdgBAWlF_Tu4NYEgogl-88" vertex="1">
          <mxGeometry x="80" width="220" height="50" as="geometry" />
        </mxCell>
        <mxCell id="JwdgBAWlF_Tu4NYEgogl-91" value="" style="group" parent="1" vertex="1" connectable="0">
          <mxGeometry x="-780" y="2360" width="300" height="50" as="geometry" />
        </mxCell>
        <mxCell id="JwdgBAWlF_Tu4NYEgogl-92" value="EBP" style="rounded=0;whiteSpace=wrap;html=1;strokeColor=#B09500;align=center;verticalAlign=middle;fontFamily=Courier New;fontSize=24;fontColor=#000000;fillColor=#e3c800;fontStyle=1;strokeWidth=4;" parent="JwdgBAWlF_Tu4NYEgogl-91" vertex="1">
          <mxGeometry width="80" height="50" as="geometry" />
        </mxCell>
        <mxCell id="JwdgBAWlF_Tu4NYEgogl-93" value="0" style="rounded=0;whiteSpace=wrap;html=1;strokeColor=#B09500;align=center;verticalAlign=middle;fontFamily=Courier New;fontSize=24;fontColor=#000000;fillColor=#e3c800;fontStyle=1;strokeWidth=4;" parent="JwdgBAWlF_Tu4NYEgogl-91" vertex="1">
          <mxGeometry x="80" width="220" height="50" as="geometry" />
        </mxCell>
        <mxCell id="JwdgBAWlF_Tu4NYEgogl-94" value="" style="endArrow=none;html=1;rounded=0;strokeWidth=4;fontColor=none;noLabel=1;strokeColor=#67AB9F;" parent="1" edge="1">
          <mxGeometry width="50" height="50" relative="1" as="geometry">
            <mxPoint x="-1650" y="2460" as="sourcePoint" />
            <mxPoint x="820" y="2460" as="targetPoint" />
          </mxGeometry>
        </mxCell>
        <mxCell id="JwdgBAWlF_Tu4NYEgogl-95" value="&lt;div style=&quot;font-size: 23px;&quot;&gt;&lt;div&gt;ret&lt;/div&gt;&lt;/div&gt;" style="rounded=1;whiteSpace=wrap;html=1;align=center;verticalAlign=middle;fontFamily=Courier New;fontSize=23;fillColor=#181818;strokeWidth=2;strokeColor=#6666FF;fontStyle=1" parent="1" vertex="1">
          <mxGeometry x="-1070" y="2510" width="140" height="80" as="geometry" />
        </mxCell>
        <mxCell id="JwdgBAWlF_Tu4NYEgogl-98" style="edgeStyle=orthogonalEdgeStyle;rounded=0;orthogonalLoop=1;jettySize=auto;html=1;fontFamily=Courier New;fontSize=20;fontColor=default;" parent="1" source="JwdgBAWlF_Tu4NYEgogl-96" target="JwdgBAWlF_Tu4NYEgogl-97" edge="1">
          <mxGeometry relative="1" as="geometry" />
        </mxCell>
        <mxCell id="JwdgBAWlF_Tu4NYEgogl-96" value="&lt;span style=&quot;color: rgba(204, 204, 204, 0.6); font-family: Consolas, &amp;quot;Courier New&amp;quot;, monospace; text-align: start; white-space-collapse: preserve; background-color: rgb(42, 40, 42);&quot;&gt;0x138ec : 0x00000003&lt;/span&gt;&lt;div&gt;&lt;span style=&quot;background-color: rgb(42, 40, 42); color: rgba(204, 204, 204, 0.6); font-family: Consolas, &amp;quot;Courier New&amp;quot;, monospace; text-align: start; white-space-collapse: preserve;&quot;&gt;          0x00000002&lt;/span&gt;&lt;/div&gt;&lt;div&gt;&lt;span style=&quot;background-color: rgb(42, 40, 42); color: rgba(204, 204, 204, 0.6); font-family: Consolas, &amp;quot;Courier New&amp;quot;, monospace; white-space-collapse: preserve; text-align: left;&quot;&gt;          0x00000001&lt;/span&gt;&lt;div&gt;&lt;div style=&quot;text-align: left;&quot;&gt;&lt;span style=&quot;background-color: rgb(42, 40, 42); color: rgba(204, 204, 204, 0.6); font-family: Consolas, &amp;quot;Courier New&amp;quot;, monospace; white-space-collapse: preserve;&quot;&gt;          0x00000000&lt;/span&gt;&lt;/div&gt;&lt;span style=&quot;color: rgba(204, 204, 204, 0.6); font-family: Consolas, &amp;quot;Courier New&amp;quot;, monospace; white-space-collapse: preserve; background-color: rgb(42, 40, 42);&quot;&gt;0x138fc : 0x000102e7&lt;/span&gt;&lt;/div&gt;&lt;div&gt;&lt;span style=&quot;color: rgba(204, 204, 204, 0.6); font-family: Consolas, &amp;quot;Courier New&amp;quot;, monospace; white-space-collapse: preserve; background-color: rgb(42, 40, 42);&quot;&gt;          0x00009200&lt;/span&gt;&lt;/div&gt;&lt;div&gt;&lt;span style=&quot;color: rgba(204, 204, 204, 0.6); font-family: Consolas, &amp;quot;Courier New&amp;quot;, monospace; white-space-collapse: preserve; background-color: rgb(42, 40, 42);&quot;&gt;          0x00000000&lt;/span&gt;&lt;/div&gt;&lt;div&gt;&lt;span style=&quot;color: rgba(204, 204, 204, 0.6); font-family: Consolas, &amp;quot;Courier New&amp;quot;, monospace; white-space-collapse: preserve; background-color: rgb(42, 40, 42);&quot;&gt;          0x00000000&lt;/span&gt;&lt;/div&gt;&lt;/div&gt;" style="rounded=0;whiteSpace=wrap;html=1;strokeColor=none;align=center;verticalAlign=middle;fontFamily=Courier New;fontSize=25;fontColor=default;fillColor=default;" parent="1" vertex="1">
          <mxGeometry x="-365" y="2180" width="300" height="250" as="geometry" />
        </mxCell>
        <mxCell id="JwdgBAWlF_Tu4NYEgogl-97" value="&lt;div&gt;&lt;div&gt;&lt;span style=&quot;color: rgba(204, 204, 204, 0.6); font-family: Consolas, &amp;quot;Courier New&amp;quot;, monospace; white-space-collapse: preserve; background-color: rgb(42, 40, 42);&quot;&gt;0x138fc : 0x000102e7&lt;/span&gt;&lt;/div&gt;&lt;div&gt;&lt;span style=&quot;color: rgba(204, 204, 204, 0.6); font-family: Consolas, &amp;quot;Courier New&amp;quot;, monospace; white-space-collapse: preserve; background-color: rgb(42, 40, 42);&quot;&gt;          0x00009200&lt;/span&gt;&lt;/div&gt;&lt;div&gt;&lt;span style=&quot;color: rgba(204, 204, 204, 0.6); font-family: Consolas, &amp;quot;Courier New&amp;quot;, monospace; white-space-collapse: preserve; background-color: rgb(42, 40, 42);&quot;&gt;          0x00000000&lt;/span&gt;&lt;/div&gt;&lt;div&gt;&lt;span style=&quot;color: rgba(204, 204, 204, 0.6); font-family: Consolas, &amp;quot;Courier New&amp;quot;, monospace; white-space-collapse: preserve; background-color: rgb(42, 40, 42);&quot;&gt;          0x00000000&lt;/span&gt;&lt;/div&gt;&lt;/div&gt;" style="rounded=0;whiteSpace=wrap;html=1;strokeColor=none;align=center;verticalAlign=middle;fontFamily=Courier New;fontSize=25;fontColor=default;fillColor=default;" parent="1" vertex="1">
          <mxGeometry x="40" y="2230" width="300" height="150" as="geometry" />
        </mxCell>
        <mxCell id="JwdgBAWlF_Tu4NYEgogl-99" value="跳转到(0x102e7)child_task_entry" style="rounded=0;whiteSpace=wrap;html=1;strokeColor=#3700CC;align=center;verticalAlign=middle;fontFamily=Courier New;fontSize=20;fontColor=#ffffff;fillColor=#6a00ff;" parent="1" vertex="1">
          <mxGeometry x="-780" y="2520" width="400" height="60" as="geometry" />
        </mxCell>
        <mxCell id="JwdgBAWlF_Tu4NYEgogl-100" value="&lt;span style=&quot;color: rgba(204, 204, 204, 0.6); font-family: Consolas, &amp;quot;Courier New&amp;quot;, monospace; font-size: 25px; text-align: start; white-space-collapse: preserve; background-color: rgb(42, 40, 42);&quot;&gt;0x138b0 : 0x00011a89  simple_task_switch&#39;s return address&lt;/span&gt;&lt;div&gt;&lt;span style=&quot;color: rgba(204, 204, 204, 0.6); font-family: Consolas, &amp;quot;Courier New&amp;quot;, monospace; font-size: 25px; text-align: start; white-space-collapse: preserve; background-color: rgb(42, 40, 42);&quot;&gt;          0x000128e8  &lt;/span&gt;&lt;span style=&quot;background-color: rgb(42, 40, 42); color: rgba(204, 204, 204, 0.6); font-family: Consolas, &amp;quot;Courier New&amp;quot;, monospace; text-align: left; white-space-collapse: preserve;&quot;&gt;arg:from-&amp;gt;stack (child_task-&amp;gt;stack)&lt;/span&gt;&lt;/div&gt;&lt;div&gt;&lt;span style=&quot;color: rgba(204, 204, 204, 0.6); font-family: Consolas, &amp;quot;Courier New&amp;quot;, monospace; font-size: 25px; text-align: start; white-space-collapse: preserve; background-color: rgb(42, 40, 42);&quot;&gt;          0x00006e14  arg:to-&amp;gt;stack    (main_task-&amp;gt;stack)&lt;/span&gt;&lt;/div&gt;&lt;div&gt;&lt;span style=&quot;color: rgba(204, 204, 204, 0.6); font-family: Consolas, &amp;quot;Courier New&amp;quot;, monospace; font-size: 25px; text-align: start; white-space-collapse: preserve; background-color: rgb(42, 40, 42);&quot;&gt;          0x00000020                                     &lt;br style=&quot;font-size: 25px;&quot;&gt;0x138c0 : 0x00000000                                     &lt;/span&gt;&lt;/div&gt;&lt;div&gt;&lt;span style=&quot;color: rgba(204, 204, 204, 0.6); font-family: Consolas, &amp;quot;Courier New&amp;quot;, monospace; font-size: 25px; text-align: start; white-space-collapse: preserve; background-color: rgb(42, 40, 42);&quot;&gt;          0x00011a71                                     &lt;/span&gt;&lt;/div&gt;&lt;div&gt;&lt;span style=&quot;color: rgba(204, 204, 204, 0.6); font-family: Consolas, &amp;quot;Courier New&amp;quot;, monospace; font-size: 25px; text-align: start; white-space-collapse: preserve; background-color: rgb(42, 40, 42);&quot;&gt;          0x00000008                                     &lt;/span&gt;&lt;/div&gt;&lt;div&gt;&lt;span style=&quot;color: rgba(204, 204, 204, 0.6); font-family: Consolas, &amp;quot;Courier New&amp;quot;, monospace; font-size: 25px; text-align: start; white-space-collapse: preserve; background-color: rgb(42, 40, 42);&quot;&gt;          0x000138fc                                     &lt;/span&gt;&lt;/div&gt;" style="rounded=0;whiteSpace=wrap;html=1;strokeColor=none;align=center;verticalAlign=middle;fontFamily=Courier New;fontSize=25;fontColor=default;fillColor=default;" parent="1" vertex="1">
          <mxGeometry x="-780" y="2700" width="810" height="290" as="geometry" />
        </mxCell>
        <mxCell id="JwdgBAWlF_Tu4NYEgogl-102" value="&lt;div style=&quot;color: rgb(214, 214, 221); background-color: rgb(24, 24, 24); font-family: Consolas, &amp;quot;Courier New&amp;quot;, monospace; font-size: 23px; line-height: 36px; white-space: pre;&quot;&gt;&lt;span style=&quot;color: rgb(239, 239, 239); font-weight: bold; font-size: 23px;&quot;&gt;simple_switch&lt;/span&gt;(&lt;span style=&quot;color: rgb(131, 214, 197); font-size: 23px;&quot;&gt;&amp;amp;&lt;/span&gt;&lt;span style=&quot;font-style: italic; font-size: 23px;&quot;&gt;from&lt;/span&gt;-&amp;gt;&lt;span style=&quot;color: rgb(175, 156, 255); font-size: 23px;&quot;&gt;stack&lt;/span&gt;, &lt;span style=&quot;font-style: italic; font-size: 23px;&quot;&gt;to&lt;/span&gt;-&amp;gt;&lt;span style=&quot;color: rgb(175, 156, 255); font-size: 23px;&quot;&gt;stack&lt;/span&gt;);&lt;/div&gt;" style="rounded=1;whiteSpace=wrap;html=1;align=center;verticalAlign=middle;fontFamily=Courier New;fontSize=23;fillColor=#181818;strokeWidth=2;strokeColor=#6666FF;" parent="1" vertex="1">
          <mxGeometry x="-1420" y="2720" width="540" height="80" as="geometry" />
        </mxCell>
        <mxCell id="JwdgBAWlF_Tu4NYEgogl-103" value="" style="endArrow=none;html=1;rounded=0;strokeWidth=4;fontColor=none;noLabel=1;strokeColor=#67AB9F;" parent="1" edge="1">
          <mxGeometry width="50" height="50" relative="1" as="geometry">
            <mxPoint x="-1650" y="2640" as="sourcePoint" />
            <mxPoint x="820" y="2640" as="targetPoint" />
          </mxGeometry>
        </mxCell>
        <mxCell id="JwdgBAWlF_Tu4NYEgogl-104" value="&lt;div style=&quot;font-size: 23px;&quot;&gt;mov 4(%esp), %eax&lt;/div&gt;&lt;div style=&quot;font-size: 23px;&quot;&gt;mov 8(%esp), %edx&lt;/div&gt;" style="rounded=1;whiteSpace=wrap;html=1;align=center;verticalAlign=middle;fontFamily=Courier New;fontSize=23;fillColor=#181818;strokeWidth=2;strokeColor=#6666FF;fontStyle=1" parent="1" vertex="1">
          <mxGeometry x="-1190" y="3090" width="310" height="80" as="geometry" />
        </mxCell>
        <mxCell id="JwdgBAWlF_Tu4NYEgogl-105" value="" style="group" parent="1" vertex="1" connectable="0">
          <mxGeometry x="-790" y="3080" width="300" height="50" as="geometry" />
        </mxCell>
        <mxCell id="JwdgBAWlF_Tu4NYEgogl-106" value="EAX" style="rounded=0;whiteSpace=wrap;html=1;strokeColor=#B09500;align=center;verticalAlign=middle;fontFamily=Courier New;fontSize=24;fontColor=#000000;fillColor=#e3c800;fontStyle=1;strokeWidth=4;" parent="JwdgBAWlF_Tu4NYEgogl-105" vertex="1">
          <mxGeometry width="80" height="50" as="geometry" />
        </mxCell>
        <mxCell id="JwdgBAWlF_Tu4NYEgogl-107" value="0x128e8" style="rounded=0;whiteSpace=wrap;html=1;strokeColor=#B09500;align=center;verticalAlign=middle;fontFamily=Courier New;fontSize=24;fontColor=#000000;fillColor=#e3c800;fontStyle=1;strokeWidth=4;" parent="JwdgBAWlF_Tu4NYEgogl-105" vertex="1">
          <mxGeometry x="80" width="220" height="50" as="geometry" />
        </mxCell>
        <mxCell id="JwdgBAWlF_Tu4NYEgogl-108" value="" style="group" parent="1" vertex="1" connectable="0">
          <mxGeometry x="-790" y="3130" width="300" height="50" as="geometry" />
        </mxCell>
        <mxCell id="JwdgBAWlF_Tu4NYEgogl-109" value="EDX" style="rounded=0;whiteSpace=wrap;html=1;strokeColor=#B09500;align=center;verticalAlign=middle;fontFamily=Courier New;fontSize=24;fontColor=#000000;fillColor=#e3c800;fontStyle=1;strokeWidth=4;" parent="JwdgBAWlF_Tu4NYEgogl-108" vertex="1">
          <mxGeometry width="80" height="50" as="geometry" />
        </mxCell>
        <mxCell id="JwdgBAWlF_Tu4NYEgogl-110" value="0x6e14" style="rounded=0;whiteSpace=wrap;html=1;strokeColor=#B09500;align=center;verticalAlign=middle;fontFamily=Courier New;fontSize=24;fontColor=#000000;fillColor=#e3c800;fontStyle=1;strokeWidth=4;" parent="JwdgBAWlF_Tu4NYEgogl-108" vertex="1">
          <mxGeometry x="80" width="220" height="50" as="geometry" />
        </mxCell>
        <mxCell id="JwdgBAWlF_Tu4NYEgogl-111" value="" style="endArrow=none;html=1;rounded=0;strokeWidth=4;fontColor=none;noLabel=1;strokeColor=#67AB9F;" parent="1" edge="1">
          <mxGeometry width="50" height="50" relative="1" as="geometry">
            <mxPoint x="-1650" y="3020" as="sourcePoint" />
            <mxPoint x="820" y="3020" as="targetPoint" />
          </mxGeometry>
        </mxCell>
        <mxCell id="JwdgBAWlF_Tu4NYEgogl-112" value="" style="endArrow=none;html=1;rounded=0;strokeWidth=4;fontColor=none;noLabel=1;strokeColor=#67AB9F;" parent="1" edge="1">
          <mxGeometry width="50" height="50" relative="1" as="geometry">
            <mxPoint x="-1650" y="3230" as="sourcePoint" />
            <mxPoint x="820" y="3230" as="targetPoint" />
          </mxGeometry>
        </mxCell>
        <mxCell id="JwdgBAWlF_Tu4NYEgogl-113" value="&lt;div style=&quot;font-size: 23px;&quot;&gt;&lt;div&gt;push %ebp&lt;/div&gt;&lt;div&gt;&lt;span style=&quot;background-color: initial;&quot;&gt;push %ebx&lt;/span&gt;&lt;/div&gt;&lt;div&gt;push %esi&lt;/div&gt;&lt;div&gt;push %edi&lt;/div&gt;&lt;/div&gt;" style="rounded=1;whiteSpace=wrap;html=1;align=center;verticalAlign=middle;fontFamily=Courier New;fontSize=23;fillColor=#181818;strokeWidth=2;strokeColor=#6666FF;fontStyle=1" parent="1" vertex="1">
          <mxGeometry x="-1060" y="3300" width="180" height="140" as="geometry" />
        </mxCell>
        <mxCell id="JwdgBAWlF_Tu4NYEgogl-114" value="&lt;div&gt;&lt;span style=&quot;color: rgba(204, 204, 204, 0.6); font-family: Consolas, &amp;quot;Courier New&amp;quot;, monospace; white-space-collapse: preserve; background-color: rgb(42, 40, 42);&quot;&gt;0x138a0 &amp;lt;child_task_stack+4000&amp;gt;: 0x00000003       edi                                 &lt;/span&gt;&lt;/div&gt;&lt;div&gt;&lt;span style=&quot;color: rgba(204, 204, 204, 0.6); font-family: Consolas, &amp;quot;Courier New&amp;quot;, monospace; white-space-collapse: preserve; background-color: rgb(42, 40, 42);&quot;&gt;                                 0x00000002       esi                                 &lt;/span&gt;&lt;/div&gt;&lt;div&gt;&lt;span style=&quot;color: rgba(204, 204, 204, 0.6); font-family: Consolas, &amp;quot;Courier New&amp;quot;, monospace; white-space-collapse: preserve; background-color: rgb(42, 40, 42);&quot;&gt;                                 0x00000001       ebx                                 &lt;/span&gt;&lt;/div&gt;&lt;div&gt;&lt;span style=&quot;color: rgba(204, 204, 204, 0.6); font-family: Consolas, &amp;quot;Courier New&amp;quot;, monospace; white-space-collapse: preserve; background-color: rgb(42, 40, 42);&quot;&gt;                                 0x000138cc       ebp                                 &lt;br&gt;0x138b0 &amp;lt;child_task_stack+4016&amp;gt;: 0x00011a89       &lt;/span&gt;&lt;span style=&quot;background-color: rgb(42, 40, 42); color: rgba(204, 204, 204, 0.6); font-family: Consolas, &amp;quot;Courier New&amp;quot;, monospace; white-space-collapse: preserve;&quot;&gt;simple_task_switch&#39;s return address &lt;/span&gt;&lt;/div&gt;&lt;div&gt;&lt;span style=&quot;color: rgba(204, 204, 204, 0.6); font-family: Consolas, &amp;quot;Courier New&amp;quot;, monospace; white-space-collapse: preserve; background-color: rgb(42, 40, 42);&quot;&gt;                                 0x000128e8       &lt;/span&gt;&lt;span style=&quot;background-color: rgb(42, 40, 42); color: rgba(204, 204, 204, 0.6); font-family: Consolas, &amp;quot;Courier New&amp;quot;, monospace; white-space-collapse: preserve;&quot;&gt;arg:from-&amp;gt;stack (child_task-&amp;gt;stack)&lt;/span&gt;&lt;span style=&quot;background-color: rgb(42, 40, 42); color: rgba(204, 204, 204, 0.6); font-family: Consolas, &amp;quot;Courier New&amp;quot;, monospace; white-space-collapse: preserve;&quot;&gt; &lt;/span&gt;&lt;/div&gt;&lt;div&gt;&lt;span style=&quot;color: rgba(204, 204, 204, 0.6); font-family: Consolas, &amp;quot;Courier New&amp;quot;, monospace; white-space-collapse: preserve; background-color: rgb(42, 40, 42);&quot;&gt;                                 0x00006e14       &lt;/span&gt;&lt;span style=&quot;color: rgba(204, 204, 204, 0.6); font-family: Consolas, &amp;quot;Courier New&amp;quot;, monospace; white-space-collapse: preserve; background-color: rgb(42, 40, 42);&quot;&gt;arg:to-&amp;gt;stack    (main_task-&amp;gt;stack)&lt;/span&gt;&lt;span style=&quot;color: rgba(204, 204, 204, 0.6); font-family: Consolas, &amp;quot;Courier New&amp;quot;, monospace; white-space-collapse: preserve; background-color: rgb(42, 40, 42);&quot;&gt; &lt;/span&gt;&lt;/div&gt;&lt;div&gt;&lt;span style=&quot;color: rgba(204, 204, 204, 0.6); font-family: Consolas, &amp;quot;Courier New&amp;quot;, monospace; white-space-collapse: preserve; background-color: rgb(42, 40, 42);&quot;&gt;                                 0x00000020                                           &lt;br&gt;0x138c0 &amp;lt;child_task_stack+4032&amp;gt;: &lt;/span&gt;&lt;span style=&quot;background-color: rgb(42, 40, 42); color: rgba(204, 204, 204, 0.6); font-family: Consolas, &amp;quot;Courier New&amp;quot;, monospace; white-space-collapse: preserve;&quot;&gt;0x00000000                                           &lt;/span&gt;&lt;/div&gt;&lt;div&gt;&lt;span style=&quot;background-color: rgb(42, 40, 42); color: rgba(204, 204, 204, 0.6); font-family: Consolas, &amp;quot;Courier New&amp;quot;, monospace; white-space-collapse: preserve;&quot;&gt;                                 0x00011a71                                           &lt;/span&gt;&lt;/div&gt;&lt;div&gt;&lt;span style=&quot;background-color: rgb(42, 40, 42); color: rgba(204, 204, 204, 0.6); font-family: Consolas, &amp;quot;Courier New&amp;quot;, monospace; white-space-collapse: preserve;&quot;&gt;                                 0x00000008                                           &lt;/span&gt;&lt;/div&gt;&lt;div&gt;&lt;span style=&quot;background-color: rgb(42, 40, 42); color: rgba(204, 204, 204, 0.6); font-family: Consolas, &amp;quot;Courier New&amp;quot;, monospace; white-space-collapse: preserve;&quot;&gt;                                 0x000138fc                                           &lt;/span&gt;&lt;/div&gt;" style="rounded=0;whiteSpace=wrap;html=1;strokeColor=none;align=left;verticalAlign=middle;fontFamily=Courier New;fontSize=25;fontColor=default;fillColor=default;" parent="1" vertex="1">
          <mxGeometry x="-790" y="3290" width="1190" height="420" as="geometry" />
        </mxCell>
        <mxCell id="JwdgBAWlF_Tu4NYEgogl-115" value="" style="endArrow=none;html=1;rounded=0;strokeWidth=4;fontColor=none;noLabel=1;strokeColor=#67AB9F;" parent="1" edge="1">
          <mxGeometry width="50" height="50" relative="1" as="geometry">
            <mxPoint x="-1650" y="3740" as="sourcePoint" />
            <mxPoint x="820" y="3740" as="targetPoint" />
          </mxGeometry>
        </mxCell>
        <mxCell id="JwdgBAWlF_Tu4NYEgogl-116" value="&lt;div style=&quot;font-size: 23px;&quot;&gt;&amp;nbsp; mov %esp, (%eax)&lt;br&gt;&lt;/div&gt;" style="rounded=1;whiteSpace=wrap;html=1;align=center;verticalAlign=middle;fontFamily=Courier New;fontSize=23;fillColor=#181818;strokeWidth=2;strokeColor=#6666FF;fontStyle=1" parent="1" vertex="1">
          <mxGeometry x="-1190" y="3810" width="310" height="80" as="geometry" />
        </mxCell>
        <mxCell id="JwdgBAWlF_Tu4NYEgogl-117" style="edgeStyle=orthogonalEdgeStyle;rounded=0;orthogonalLoop=1;jettySize=auto;html=1;entryX=0;entryY=0.5;entryDx=0;entryDy=0;fontFamily=Courier New;fontSize=20;fontColor=default;" parent="1" source="JwdgBAWlF_Tu4NYEgogl-118" target="JwdgBAWlF_Tu4NYEgogl-137" edge="1">
          <mxGeometry relative="1" as="geometry" />
        </mxCell>
        <mxCell id="JwdgBAWlF_Tu4NYEgogl-118" value="" style="shape=table;startSize=0;container=1;collapsible=0;childLayout=tableLayout;fontSize=16;rounded=0;align=center;verticalAlign=middle;fontFamily=Courier New;strokeWidth=2;" parent="1" vertex="1">
          <mxGeometry x="-790" y="3810" width="490" height="90" as="geometry" />
        </mxCell>
        <mxCell id="JwdgBAWlF_Tu4NYEgogl-119" value="" style="shape=tableRow;horizontal=0;startSize=0;swimlaneHead=0;swimlaneBody=0;strokeColor=inherit;top=0;left=0;bottom=0;right=0;collapsible=0;dropTarget=0;fillColor=none;points=[[0,0.5],[1,0.5]];portConstraint=eastwest;fontSize=16;rounded=0;align=center;verticalAlign=middle;fontFamily=Courier New;fontColor=default;" parent="JwdgBAWlF_Tu4NYEgogl-118" vertex="1">
          <mxGeometry width="490" height="27" as="geometry" />
        </mxCell>
        <mxCell id="JwdgBAWlF_Tu4NYEgogl-120" value="0x128e0" style="shape=partialRectangle;html=1;whiteSpace=wrap;connectable=0;strokeColor=inherit;overflow=hidden;fillColor=none;top=0;left=0;bottom=0;right=0;pointerEvents=1;fontSize=16;rounded=0;align=center;verticalAlign=middle;fontFamily=Courier New;fontColor=default;" parent="JwdgBAWlF_Tu4NYEgogl-119" vertex="1">
          <mxGeometry width="90" height="27" as="geometry">
            <mxRectangle width="90" height="27" as="alternateBounds" />
          </mxGeometry>
        </mxCell>
        <mxCell id="JwdgBAWlF_Tu4NYEgogl-121" value="0x000138ec" style="shape=partialRectangle;html=1;whiteSpace=wrap;connectable=0;strokeColor=inherit;overflow=hidden;fillColor=none;top=0;left=0;bottom=0;right=0;pointerEvents=1;fontSize=16;rounded=0;align=center;verticalAlign=middle;fontFamily=Courier New;fontColor=#FF9999;" parent="JwdgBAWlF_Tu4NYEgogl-119" vertex="1">
          <mxGeometry x="90" width="110" height="27" as="geometry">
            <mxRectangle width="110" height="27" as="alternateBounds" />
          </mxGeometry>
        </mxCell>
        <mxCell id="JwdgBAWlF_Tu4NYEgogl-122" value="&lt;font style=&quot;font-size: 14px;&quot;&gt;child_task-&amp;gt;stack&lt;/font&gt;" style="shape=partialRectangle;html=1;whiteSpace=wrap;connectable=0;strokeColor=inherit;overflow=hidden;fillColor=none;top=0;left=0;bottom=0;right=0;pointerEvents=1;fontSize=16;rounded=0;align=center;verticalAlign=middle;fontFamily=Courier New;fontColor=#FFD966;" parent="JwdgBAWlF_Tu4NYEgogl-119" vertex="1">
          <mxGeometry x="200" width="290" height="27" as="geometry">
            <mxRectangle width="290" height="27" as="alternateBounds" />
          </mxGeometry>
        </mxCell>
        <mxCell id="JwdgBAWlF_Tu4NYEgogl-123" value="" style="shape=tableRow;horizontal=0;startSize=0;swimlaneHead=0;swimlaneBody=0;strokeColor=inherit;top=0;left=0;bottom=0;right=0;collapsible=0;dropTarget=0;fillColor=none;points=[[0,0.5],[1,0.5]];portConstraint=eastwest;fontSize=16;rounded=0;align=center;verticalAlign=middle;fontFamily=Courier New;fontColor=default;" parent="JwdgBAWlF_Tu4NYEgogl-118" vertex="1">
          <mxGeometry y="27" width="490" height="32" as="geometry" />
        </mxCell>
        <mxCell id="JwdgBAWlF_Tu4NYEgogl-124" value="0x128dc" style="shape=partialRectangle;html=1;whiteSpace=wrap;connectable=0;strokeColor=inherit;overflow=hidden;fillColor=none;top=0;left=0;bottom=0;right=0;pointerEvents=1;fontSize=16;rounded=0;align=center;verticalAlign=middle;fontFamily=Courier New;fontColor=default;" parent="JwdgBAWlF_Tu4NYEgogl-123" vertex="1">
          <mxGeometry width="90" height="32" as="geometry">
            <mxRectangle width="90" height="32" as="alternateBounds" />
          </mxGeometry>
        </mxCell>
        <mxCell id="JwdgBAWlF_Tu4NYEgogl-125" value="0" style="shape=partialRectangle;html=1;whiteSpace=wrap;connectable=0;strokeColor=inherit;overflow=hidden;fillColor=none;top=0;left=0;bottom=0;right=0;pointerEvents=1;fontSize=16;rounded=0;align=center;verticalAlign=middle;fontFamily=Courier New;fontColor=default;" parent="JwdgBAWlF_Tu4NYEgogl-123" vertex="1">
          <mxGeometry x="90" width="110" height="32" as="geometry">
            <mxRectangle width="110" height="32" as="alternateBounds" />
          </mxGeometry>
        </mxCell>
        <mxCell id="JwdgBAWlF_Tu4NYEgogl-126" value="..." style="shape=partialRectangle;html=1;whiteSpace=wrap;connectable=0;strokeColor=inherit;overflow=hidden;fillColor=none;top=0;left=0;bottom=0;right=0;pointerEvents=1;fontSize=16;rounded=0;align=center;verticalAlign=middle;fontFamily=Courier New;fontColor=default;" parent="JwdgBAWlF_Tu4NYEgogl-123" vertex="1">
          <mxGeometry x="200" width="290" height="32" as="geometry">
            <mxRectangle width="290" height="32" as="alternateBounds" />
          </mxGeometry>
        </mxCell>
        <mxCell id="JwdgBAWlF_Tu4NYEgogl-127" value="" style="shape=tableRow;horizontal=0;startSize=0;swimlaneHead=0;swimlaneBody=0;strokeColor=inherit;top=0;left=0;bottom=0;right=0;collapsible=0;dropTarget=0;fillColor=none;points=[[0,0.5],[1,0.5]];portConstraint=eastwest;fontSize=16;rounded=0;align=center;verticalAlign=middle;fontFamily=Courier New;fontColor=default;" parent="JwdgBAWlF_Tu4NYEgogl-118" vertex="1">
          <mxGeometry y="59" width="490" height="31" as="geometry" />
        </mxCell>
        <mxCell id="JwdgBAWlF_Tu4NYEgogl-128" value="0x128d8" style="shape=partialRectangle;html=1;whiteSpace=wrap;connectable=0;strokeColor=inherit;overflow=hidden;fillColor=none;top=0;left=0;bottom=0;right=0;pointerEvents=1;fontSize=16;rounded=0;align=center;verticalAlign=middle;fontFamily=Courier New;fontColor=default;" parent="JwdgBAWlF_Tu4NYEgogl-127" vertex="1">
          <mxGeometry width="90" height="31" as="geometry">
            <mxRectangle width="90" height="31" as="alternateBounds" />
          </mxGeometry>
        </mxCell>
        <mxCell id="JwdgBAWlF_Tu4NYEgogl-129" value="0" style="shape=partialRectangle;html=1;whiteSpace=wrap;connectable=0;strokeColor=inherit;overflow=hidden;fillColor=none;top=0;left=0;bottom=0;right=0;pointerEvents=1;fontSize=16;rounded=0;align=center;verticalAlign=middle;fontFamily=Courier New;fontColor=default;" parent="JwdgBAWlF_Tu4NYEgogl-127" vertex="1">
          <mxGeometry x="90" width="110" height="31" as="geometry">
            <mxRectangle width="110" height="31" as="alternateBounds" />
          </mxGeometry>
        </mxCell>
        <mxCell id="JwdgBAWlF_Tu4NYEgogl-130" value="..." style="shape=partialRectangle;html=1;whiteSpace=wrap;connectable=0;strokeColor=inherit;overflow=hidden;fillColor=none;top=0;left=0;bottom=0;right=0;pointerEvents=1;fontSize=16;rounded=0;align=center;verticalAlign=middle;fontFamily=Courier New;fontColor=default;" parent="JwdgBAWlF_Tu4NYEgogl-127" vertex="1">
          <mxGeometry x="200" width="290" height="31" as="geometry">
            <mxRectangle width="290" height="31" as="alternateBounds" />
          </mxGeometry>
        </mxCell>
        <mxCell id="JwdgBAWlF_Tu4NYEgogl-131" value="内存" style="text;strokeColor=none;fillColor=none;html=1;fontSize=20;fontStyle=1;verticalAlign=middle;align=center;fontFamily=Courier New;fontColor=default;" parent="1" vertex="1">
          <mxGeometry x="-790" y="3770" width="1150" height="40" as="geometry" />
        </mxCell>
        <mxCell id="JwdgBAWlF_Tu4NYEgogl-132" value="" style="shape=table;startSize=0;container=1;collapsible=0;childLayout=tableLayout;fontSize=16;rounded=0;align=center;verticalAlign=middle;fontFamily=Courier New;strokeWidth=2;" parent="1" vertex="1">
          <mxGeometry x="-130" y="3811" width="490" height="90" as="geometry" />
        </mxCell>
        <mxCell id="JwdgBAWlF_Tu4NYEgogl-133" value="" style="shape=tableRow;horizontal=0;startSize=0;swimlaneHead=0;swimlaneBody=0;strokeColor=inherit;top=0;left=0;bottom=0;right=0;collapsible=0;dropTarget=0;fillColor=none;points=[[0,0.5],[1,0.5]];portConstraint=eastwest;fontSize=16;rounded=0;align=center;verticalAlign=middle;fontFamily=Courier New;fontColor=default;" parent="JwdgBAWlF_Tu4NYEgogl-132" vertex="1">
          <mxGeometry width="490" height="27" as="geometry" />
        </mxCell>
        <mxCell id="JwdgBAWlF_Tu4NYEgogl-134" value="0x128e0" style="shape=partialRectangle;html=1;whiteSpace=wrap;connectable=0;strokeColor=inherit;overflow=hidden;fillColor=none;top=0;left=0;bottom=0;right=0;pointerEvents=1;fontSize=16;rounded=0;align=center;verticalAlign=middle;fontFamily=Courier New;fontColor=default;" parent="JwdgBAWlF_Tu4NYEgogl-133" vertex="1">
          <mxGeometry width="90" height="27" as="geometry">
            <mxRectangle width="90" height="27" as="alternateBounds" />
          </mxGeometry>
        </mxCell>
        <mxCell id="JwdgBAWlF_Tu4NYEgogl-135" value="0x000138a0" style="shape=partialRectangle;html=1;whiteSpace=wrap;connectable=0;strokeColor=inherit;overflow=hidden;fillColor=none;top=0;left=0;bottom=0;right=0;pointerEvents=1;fontSize=16;rounded=0;align=center;verticalAlign=middle;fontFamily=Courier New;fontColor=#FF9999;" parent="JwdgBAWlF_Tu4NYEgogl-133" vertex="1">
          <mxGeometry x="90" width="130" height="27" as="geometry">
            <mxRectangle width="130" height="27" as="alternateBounds" />
          </mxGeometry>
        </mxCell>
        <mxCell id="JwdgBAWlF_Tu4NYEgogl-136" value="&lt;font style=&quot;font-size: 14px;&quot;&gt;child_task-&amp;gt;stack&lt;/font&gt;" style="shape=partialRectangle;html=1;whiteSpace=wrap;connectable=0;strokeColor=inherit;overflow=hidden;fillColor=none;top=0;left=0;bottom=0;right=0;pointerEvents=1;fontSize=16;rounded=0;align=center;verticalAlign=middle;fontFamily=Courier New;fontColor=#FFD966;" parent="JwdgBAWlF_Tu4NYEgogl-133" vertex="1">
          <mxGeometry x="220" width="270" height="27" as="geometry">
            <mxRectangle width="270" height="27" as="alternateBounds" />
          </mxGeometry>
        </mxCell>
        <mxCell id="JwdgBAWlF_Tu4NYEgogl-137" value="" style="shape=tableRow;horizontal=0;startSize=0;swimlaneHead=0;swimlaneBody=0;strokeColor=inherit;top=0;left=0;bottom=0;right=0;collapsible=0;dropTarget=0;fillColor=none;points=[[0,0.5],[1,0.5]];portConstraint=eastwest;fontSize=16;rounded=0;align=center;verticalAlign=middle;fontFamily=Courier New;fontColor=default;" parent="JwdgBAWlF_Tu4NYEgogl-132" vertex="1">
          <mxGeometry y="27" width="490" height="32" as="geometry" />
        </mxCell>
        <mxCell id="JwdgBAWlF_Tu4NYEgogl-138" value="0x128dc" style="shape=partialRectangle;html=1;whiteSpace=wrap;connectable=0;strokeColor=inherit;overflow=hidden;fillColor=none;top=0;left=0;bottom=0;right=0;pointerEvents=1;fontSize=16;rounded=0;align=center;verticalAlign=middle;fontFamily=Courier New;fontColor=default;" parent="JwdgBAWlF_Tu4NYEgogl-137" vertex="1">
          <mxGeometry width="90" height="32" as="geometry">
            <mxRectangle width="90" height="32" as="alternateBounds" />
          </mxGeometry>
        </mxCell>
        <mxCell id="JwdgBAWlF_Tu4NYEgogl-139" value="0" style="shape=partialRectangle;html=1;whiteSpace=wrap;connectable=0;strokeColor=inherit;overflow=hidden;fillColor=none;top=0;left=0;bottom=0;right=0;pointerEvents=1;fontSize=16;rounded=0;align=center;verticalAlign=middle;fontFamily=Courier New;fontColor=default;" parent="JwdgBAWlF_Tu4NYEgogl-137" vertex="1">
          <mxGeometry x="90" width="130" height="32" as="geometry">
            <mxRectangle width="130" height="32" as="alternateBounds" />
          </mxGeometry>
        </mxCell>
        <mxCell id="JwdgBAWlF_Tu4NYEgogl-140" value="..." style="shape=partialRectangle;html=1;whiteSpace=wrap;connectable=0;strokeColor=inherit;overflow=hidden;fillColor=none;top=0;left=0;bottom=0;right=0;pointerEvents=1;fontSize=16;rounded=0;align=center;verticalAlign=middle;fontFamily=Courier New;fontColor=default;" parent="JwdgBAWlF_Tu4NYEgogl-137" vertex="1">
          <mxGeometry x="220" width="270" height="32" as="geometry">
            <mxRectangle width="270" height="32" as="alternateBounds" />
          </mxGeometry>
        </mxCell>
        <mxCell id="JwdgBAWlF_Tu4NYEgogl-141" value="" style="shape=tableRow;horizontal=0;startSize=0;swimlaneHead=0;swimlaneBody=0;strokeColor=inherit;top=0;left=0;bottom=0;right=0;collapsible=0;dropTarget=0;fillColor=none;points=[[0,0.5],[1,0.5]];portConstraint=eastwest;fontSize=16;rounded=0;align=center;verticalAlign=middle;fontFamily=Courier New;fontColor=default;" parent="JwdgBAWlF_Tu4NYEgogl-132" vertex="1">
          <mxGeometry y="59" width="490" height="31" as="geometry" />
        </mxCell>
        <mxCell id="JwdgBAWlF_Tu4NYEgogl-142" value="0x128d8" style="shape=partialRectangle;html=1;whiteSpace=wrap;connectable=0;strokeColor=inherit;overflow=hidden;fillColor=none;top=0;left=0;bottom=0;right=0;pointerEvents=1;fontSize=16;rounded=0;align=center;verticalAlign=middle;fontFamily=Courier New;fontColor=default;" parent="JwdgBAWlF_Tu4NYEgogl-141" vertex="1">
          <mxGeometry width="90" height="31" as="geometry">
            <mxRectangle width="90" height="31" as="alternateBounds" />
          </mxGeometry>
        </mxCell>
        <mxCell id="JwdgBAWlF_Tu4NYEgogl-143" value="0" style="shape=partialRectangle;html=1;whiteSpace=wrap;connectable=0;strokeColor=inherit;overflow=hidden;fillColor=none;top=0;left=0;bottom=0;right=0;pointerEvents=1;fontSize=16;rounded=0;align=center;verticalAlign=middle;fontFamily=Courier New;fontColor=default;" parent="JwdgBAWlF_Tu4NYEgogl-141" vertex="1">
          <mxGeometry x="90" width="130" height="31" as="geometry">
            <mxRectangle width="130" height="31" as="alternateBounds" />
          </mxGeometry>
        </mxCell>
        <mxCell id="JwdgBAWlF_Tu4NYEgogl-144" value="..." style="shape=partialRectangle;html=1;whiteSpace=wrap;connectable=0;strokeColor=inherit;overflow=hidden;fillColor=none;top=0;left=0;bottom=0;right=0;pointerEvents=1;fontSize=16;rounded=0;align=center;verticalAlign=middle;fontFamily=Courier New;fontColor=default;" parent="JwdgBAWlF_Tu4NYEgogl-141" vertex="1">
          <mxGeometry x="220" width="270" height="31" as="geometry">
            <mxRectangle width="270" height="31" as="alternateBounds" />
          </mxGeometry>
        </mxCell>
        <mxCell id="JwdgBAWlF_Tu4NYEgogl-145" value="&lt;div style=&quot;font-size: 23px;&quot;&gt;&lt;div&gt;&amp;nbsp;&amp;nbsp;&lt;span style=&quot;background-color: initial;&quot;&gt;mov %edx, %esp&lt;/span&gt;&lt;/div&gt;&lt;/div&gt;" style="rounded=1;whiteSpace=wrap;html=1;align=center;verticalAlign=middle;fontFamily=Courier New;fontSize=23;fillColor=#181818;strokeWidth=2;strokeColor=#6666FF;fontStyle=1" parent="1" vertex="1">
          <mxGeometry x="-1190" y="4030" width="310" height="80" as="geometry" />
        </mxCell>
        <mxCell id="JwdgBAWlF_Tu4NYEgogl-146" value="将child_task的stack地址设置为&lt;div&gt;当前的栈顶的地址&lt;/div&gt;&lt;div&gt;也就是esp的值&lt;/div&gt;" style="shape=note;whiteSpace=wrap;html=1;backgroundOutline=1;darkOpacity=0.05;rounded=0;strokeColor=#BD7000;align=center;verticalAlign=middle;fontFamily=Courier New;fontSize=20;fontColor=#000000;fillColor=#f0a30a;" parent="1" vertex="1">
          <mxGeometry x="400" y="3770" width="380" height="140" as="geometry" />
        </mxCell>
        <mxCell id="JwdgBAWlF_Tu4NYEgogl-148" value="&lt;span style=&quot;color: rgba(204, 204, 204, 0.6); font-family: Consolas, &amp;quot;Courier New&amp;quot;, monospace; font-size: 25px; text-align: start; white-space-collapse: preserve; background-color: rgb(42, 40, 42);&quot;&gt;0x6e14:&#x9;0x00000000&#x9;0x00000000&#x9;0x00008000&#x9;0x00006e40&lt;br style=&quot;font-size: 25px;&quot;&gt;0x6e24:&#x9;0x00011a89&#x9;0x000128e0&#x9;0x000138ec&#x9;0x00000000&lt;br style=&quot;font-size: 25px;&quot;&gt;0x6e34:&#x9;0x00006a3c&#x9;0x0001243a&#x9;0x00000008&#x9;0x00006e70&lt;br style=&quot;font-size: 25px;&quot;&gt;0x6e44:&#x9;0x0001035e&#x9;0x000128e0&#x9;0x000128e8&#x9;0x000003d5&lt;/span&gt;" style="rounded=0;whiteSpace=wrap;html=1;strokeColor=none;align=center;verticalAlign=middle;fontFamily=Courier New;fontSize=25;fontColor=default;fillColor=default;" parent="1" vertex="1">
          <mxGeometry x="-575" y="4170" width="920" height="140" as="geometry" />
        </mxCell>
        <mxCell id="JwdgBAWlF_Tu4NYEgogl-160" style="edgeStyle=orthogonalEdgeStyle;rounded=0;orthogonalLoop=1;jettySize=auto;html=1;fontFamily=Courier New;fontSize=20;fontColor=default;" parent="1" source="JwdgBAWlF_Tu4NYEgogl-149" target="JwdgBAWlF_Tu4NYEgogl-148" edge="1">
          <mxGeometry relative="1" as="geometry" />
        </mxCell>
        <mxCell id="JwdgBAWlF_Tu4NYEgogl-149" value="&lt;span style=&quot;color: rgba(204, 204, 204, 0.6); font-family: Consolas, &amp;quot;Courier New&amp;quot;, monospace; font-size: 25px; text-align: start; white-space-collapse: preserve; background-color: rgb(42, 40, 42);&quot;&gt;0x138a0 &amp;lt;child_task_stack+4000&amp;gt;:&#x9;0x00000003&#x9;0x00000002&#x9;0x00000001&#x9;0x000138cc&lt;br style=&quot;font-size: 25px;&quot;&gt;0x138b0 &amp;lt;child_task_stack+4016&amp;gt;:&#x9;0x00011a89&#x9;0x000128e8&#x9;0x00006e14&#x9;0x00000000&lt;/span&gt;" style="rounded=0;whiteSpace=wrap;html=1;strokeColor=none;align=center;verticalAlign=middle;fontFamily=Courier New;fontSize=25;fontColor=default;fillColor=default;" parent="1" vertex="1">
          <mxGeometry x="-800" y="4010" width="1370" height="90" as="geometry" />
        </mxCell>
        <mxCell id="JwdgBAWlF_Tu4NYEgogl-150" value="更改esp寄存器的值&lt;div&gt;完成了栈空间的切换&lt;/div&gt;" style="shape=note;whiteSpace=wrap;html=1;backgroundOutline=1;darkOpacity=0.05;rounded=0;strokeColor=#BD7000;align=center;verticalAlign=middle;fontFamily=Courier New;fontSize=20;fontColor=#000000;fillColor=#f0a30a;" parent="1" vertex="1">
          <mxGeometry x="400" y="4160" width="380" height="140" as="geometry" />
        </mxCell>
        <mxCell id="JwdgBAWlF_Tu4NYEgogl-151" value="" style="endArrow=none;html=1;rounded=0;strokeWidth=4;fontColor=none;noLabel=1;strokeColor=#67AB9F;" parent="1" edge="1">
          <mxGeometry width="50" height="50" relative="1" as="geometry">
            <mxPoint x="-1650" y="3960" as="sourcePoint" />
            <mxPoint x="820" y="3960" as="targetPoint" />
          </mxGeometry>
        </mxCell>
        <mxCell id="JwdgBAWlF_Tu4NYEgogl-158" value="" style="curved=1;endArrow=classic;html=1;rounded=0;fontFamily=Courier New;fontSize=20;fontColor=default;entryX=0.999;entryY=0.072;entryDx=0;entryDy=0;entryPerimeter=0;exitX=0.691;exitY=1.071;exitDx=0;exitDy=0;exitPerimeter=0;strokeWidth=10;strokeColor=#FF6666;" parent="1" source="JwdgBAWlF_Tu4NYEgogl-51" target="JwdgBAWlF_Tu4NYEgogl-33" edge="1">
          <mxGeometry width="50" height="50" relative="1" as="geometry">
            <mxPoint x="200" y="1390" as="sourcePoint" />
            <mxPoint x="250" y="1340" as="targetPoint" />
            <Array as="points">
              <mxPoint x="110" y="1530" />
              <mxPoint x="150" y="1230" />
            </Array>
          </mxGeometry>
        </mxCell>
        <mxCell id="JwdgBAWlF_Tu4NYEgogl-159" value="" style="curved=1;endArrow=classic;html=1;rounded=0;fontFamily=Courier New;fontSize=20;fontColor=default;entryX=1;entryY=0.11;entryDx=0;entryDy=0;entryPerimeter=0;exitX=0.32;exitY=0.099;exitDx=0;exitDy=0;exitPerimeter=0;strokeWidth=10;strokeColor=#FF6666;" parent="1" source="JwdgBAWlF_Tu4NYEgogl-133" target="JwdgBAWlF_Tu4NYEgogl-114" edge="1">
          <mxGeometry width="50" height="50" relative="1" as="geometry">
            <mxPoint x="260" y="3924" as="sourcePoint" />
            <mxPoint x="284" y="3420" as="targetPoint" />
            <Array as="points">
              <mxPoint x="620" y="3690" />
              <mxPoint x="640" y="3430" />
            </Array>
          </mxGeometry>
        </mxCell>
        <mxCell id="JwdgBAWlF_Tu4NYEgogl-161" value="&lt;div style=&quot;font-size: 23px;&quot;&gt;&lt;div style=&quot;font-size: 23px;&quot;&gt;pop %edi&lt;/div&gt;&lt;div style=&quot;font-size: 23px;&quot;&gt;pop %esi&lt;/div&gt;&lt;div style=&quot;font-size: 23px;&quot;&gt;pop %ebx&lt;/div&gt;&lt;div style=&quot;font-size: 23px;&quot;&gt;pop %ebp&lt;/div&gt;&lt;/div&gt;" style="rounded=1;whiteSpace=wrap;html=1;align=center;verticalAlign=middle;fontFamily=Courier New;fontSize=23;fillColor=#181818;strokeWidth=2;strokeColor=#6666FF;fontStyle=1" parent="1" vertex="1">
          <mxGeometry x="-1110" y="4440" width="220" height="170" as="geometry" />
        </mxCell>
        <mxCell id="JwdgBAWlF_Tu4NYEgogl-162" value="" style="group" parent="1" vertex="1" connectable="0">
          <mxGeometry x="-780" y="4430" width="300" height="50" as="geometry" />
        </mxCell>
        <mxCell id="JwdgBAWlF_Tu4NYEgogl-163" value="EDI" style="rounded=0;whiteSpace=wrap;html=1;strokeColor=#B09500;align=center;verticalAlign=middle;fontFamily=Courier New;fontSize=24;fontColor=#000000;fillColor=#e3c800;fontStyle=1;strokeWidth=4;" parent="JwdgBAWlF_Tu4NYEgogl-162" vertex="1">
          <mxGeometry width="80" height="50" as="geometry" />
        </mxCell>
        <mxCell id="JwdgBAWlF_Tu4NYEgogl-164" value="0" style="rounded=0;whiteSpace=wrap;html=1;strokeColor=#B09500;align=center;verticalAlign=middle;fontFamily=Courier New;fontSize=24;fontColor=#000000;fillColor=#e3c800;fontStyle=1;strokeWidth=4;" parent="JwdgBAWlF_Tu4NYEgogl-162" vertex="1">
          <mxGeometry x="80" width="220" height="50" as="geometry" />
        </mxCell>
        <mxCell id="JwdgBAWlF_Tu4NYEgogl-165" value="2" style="group" parent="1" vertex="1" connectable="0">
          <mxGeometry x="-780" y="4480" width="300" height="50" as="geometry" />
        </mxCell>
        <mxCell id="JwdgBAWlF_Tu4NYEgogl-166" value="ESI" style="rounded=0;whiteSpace=wrap;html=1;strokeColor=#B09500;align=center;verticalAlign=middle;fontFamily=Courier New;fontSize=24;fontColor=#000000;fillColor=#e3c800;fontStyle=1;strokeWidth=4;" parent="JwdgBAWlF_Tu4NYEgogl-165" vertex="1">
          <mxGeometry width="80" height="50" as="geometry" />
        </mxCell>
        <mxCell id="JwdgBAWlF_Tu4NYEgogl-167" value="0" style="rounded=0;whiteSpace=wrap;html=1;strokeColor=#B09500;align=center;verticalAlign=middle;fontFamily=Courier New;fontSize=24;fontColor=#000000;fillColor=#e3c800;fontStyle=1;strokeWidth=4;" parent="JwdgBAWlF_Tu4NYEgogl-165" vertex="1">
          <mxGeometry x="80" width="220" height="50" as="geometry" />
        </mxCell>
        <mxCell id="JwdgBAWlF_Tu4NYEgogl-168" value="" style="group" parent="1" vertex="1" connectable="0">
          <mxGeometry x="-780" y="4530" width="300" height="50" as="geometry" />
        </mxCell>
        <mxCell id="JwdgBAWlF_Tu4NYEgogl-169" value="EBX" style="rounded=0;whiteSpace=wrap;html=1;strokeColor=#B09500;align=center;verticalAlign=middle;fontFamily=Courier New;fontSize=24;fontColor=#000000;fillColor=#e3c800;fontStyle=1;strokeWidth=4;" parent="JwdgBAWlF_Tu4NYEgogl-168" vertex="1">
          <mxGeometry width="80" height="50" as="geometry" />
        </mxCell>
        <mxCell id="JwdgBAWlF_Tu4NYEgogl-170" value="0x8000" style="rounded=0;whiteSpace=wrap;html=1;strokeColor=#B09500;align=center;verticalAlign=middle;fontFamily=Courier New;fontSize=24;fontColor=#000000;fillColor=#e3c800;fontStyle=1;strokeWidth=4;" parent="JwdgBAWlF_Tu4NYEgogl-168" vertex="1">
          <mxGeometry x="80" width="220" height="50" as="geometry" />
        </mxCell>
        <mxCell id="JwdgBAWlF_Tu4NYEgogl-171" value="" style="group" parent="1" vertex="1" connectable="0">
          <mxGeometry x="-780" y="4580" width="300" height="50" as="geometry" />
        </mxCell>
        <mxCell id="JwdgBAWlF_Tu4NYEgogl-172" value="EBP" style="rounded=0;whiteSpace=wrap;html=1;strokeColor=#B09500;align=center;verticalAlign=middle;fontFamily=Courier New;fontSize=24;fontColor=#000000;fillColor=#e3c800;fontStyle=1;strokeWidth=4;" parent="JwdgBAWlF_Tu4NYEgogl-171" vertex="1">
          <mxGeometry width="80" height="50" as="geometry" />
        </mxCell>
        <mxCell id="JwdgBAWlF_Tu4NYEgogl-173" value="0x6e40" style="rounded=0;whiteSpace=wrap;html=1;strokeColor=#B09500;align=center;verticalAlign=middle;fontFamily=Courier New;fontSize=24;fontColor=#000000;fillColor=#e3c800;fontStyle=1;strokeWidth=4;" parent="JwdgBAWlF_Tu4NYEgogl-171" vertex="1">
          <mxGeometry x="80" width="220" height="50" as="geometry" />
        </mxCell>
        <mxCell id="JwdgBAWlF_Tu4NYEgogl-174" value="&lt;div style=&quot;font-size: 23px;&quot;&gt;&lt;div&gt;ret&lt;/div&gt;&lt;/div&gt;" style="rounded=1;whiteSpace=wrap;html=1;align=center;verticalAlign=middle;fontFamily=Courier New;fontSize=23;fillColor=#181818;strokeWidth=2;strokeColor=#6666FF;fontStyle=1" parent="1" vertex="1">
          <mxGeometry x="-1070" y="4730" width="140" height="80" as="geometry" />
        </mxCell>
        <mxCell id="JwdgBAWlF_Tu4NYEgogl-175" style="edgeStyle=orthogonalEdgeStyle;rounded=0;orthogonalLoop=1;jettySize=auto;html=1;fontFamily=Courier New;fontSize=20;fontColor=default;" parent="1" source="JwdgBAWlF_Tu4NYEgogl-176" target="JwdgBAWlF_Tu4NYEgogl-177" edge="1">
          <mxGeometry relative="1" as="geometry" />
        </mxCell>
        <mxCell id="JwdgBAWlF_Tu4NYEgogl-176" value="&lt;span style=&quot;color: rgba(204, 204, 204, 0.6); font-family: Consolas, &amp;quot;Courier New&amp;quot;, monospace; font-size: 25px; text-align: start; white-space-collapse: preserve; background-color: rgb(42, 40, 42);&quot;&gt;0x6e14:&#x9;0x00000000&lt;/span&gt;&lt;div&gt;&lt;span style=&quot;color: rgba(204, 204, 204, 0.6); font-family: Consolas, &amp;quot;Courier New&amp;quot;, monospace; font-size: 25px; text-align: start; white-space-collapse: preserve; background-color: rgb(42, 40, 42);&quot;&gt;        0x00000000&lt;/span&gt;&lt;/div&gt;&lt;div&gt;&lt;span style=&quot;color: rgba(204, 204, 204, 0.6); font-family: Consolas, &amp;quot;Courier New&amp;quot;, monospace; font-size: 25px; text-align: start; white-space-collapse: preserve; background-color: rgb(42, 40, 42);&quot;&gt;        0x00008000&lt;/span&gt;&lt;/div&gt;&lt;div&gt;&lt;span style=&quot;color: rgba(204, 204, 204, 0.6); font-family: Consolas, &amp;quot;Courier New&amp;quot;, monospace; font-size: 25px; text-align: start; white-space-collapse: preserve; background-color: rgb(42, 40, 42);&quot;&gt;        0x00006e40&lt;br style=&quot;font-size: 25px;&quot;&gt;0x6e24:&#x9;0x00011a89&lt;/span&gt;&lt;/div&gt;&lt;div&gt;&lt;span style=&quot;color: rgba(204, 204, 204, 0.6); font-family: Consolas, &amp;quot;Courier New&amp;quot;, monospace; font-size: 25px; text-align: start; white-space-collapse: preserve; background-color: rgb(42, 40, 42);&quot;&gt;        0x000128e0&lt;/span&gt;&lt;/div&gt;&lt;div&gt;&lt;span style=&quot;color: rgba(204, 204, 204, 0.6); font-family: Consolas, &amp;quot;Courier New&amp;quot;, monospace; font-size: 25px; text-align: start; white-space-collapse: preserve; background-color: rgb(42, 40, 42);&quot;&gt;        0x000138ec&lt;/span&gt;&lt;/div&gt;&lt;div&gt;&lt;span style=&quot;color: rgba(204, 204, 204, 0.6); font-family: Consolas, &amp;quot;Courier New&amp;quot;, monospace; font-size: 25px; text-align: start; white-space-collapse: preserve; background-color: rgb(42, 40, 42);&quot;&gt;        0x00000000&lt;/span&gt;&lt;/div&gt;" style="rounded=0;whiteSpace=wrap;html=1;strokeColor=none;align=center;verticalAlign=middle;fontFamily=Courier New;fontSize=25;fontColor=default;fillColor=default;" parent="1" vertex="1">
          <mxGeometry x="-365" y="4400" width="275" height="250" as="geometry" />
        </mxCell>
        <mxCell id="JwdgBAWlF_Tu4NYEgogl-177" value="&lt;span style=&quot;color: rgba(204, 204, 204, 0.6); font-family: Consolas, &amp;quot;Courier New&amp;quot;, monospace; font-size: 25px; text-align: start; white-space-collapse: preserve; background-color: rgb(42, 40, 42);&quot;&gt;0x6e24:&#x9;0x00011a89&lt;/span&gt;&lt;div&gt;&lt;span style=&quot;color: rgba(204, 204, 204, 0.6); font-family: Consolas, &amp;quot;Courier New&amp;quot;, monospace; font-size: 25px; text-align: start; white-space-collapse: preserve; background-color: rgb(42, 40, 42);&quot;&gt;        0x000128e0&lt;/span&gt;&lt;/div&gt;&lt;div&gt;&lt;span style=&quot;color: rgba(204, 204, 204, 0.6); font-family: Consolas, &amp;quot;Courier New&amp;quot;, monospace; font-size: 25px; text-align: start; white-space-collapse: preserve; background-color: rgb(42, 40, 42);&quot;&gt;        0x000138ec&lt;/span&gt;&lt;/div&gt;&lt;div&gt;&lt;span style=&quot;color: rgba(204, 204, 204, 0.6); font-family: Consolas, &amp;quot;Courier New&amp;quot;, monospace; font-size: 25px; text-align: start; white-space-collapse: preserve; background-color: rgb(42, 40, 42);&quot;&gt;        0x00000000&lt;/span&gt;&lt;/div&gt;" style="rounded=0;whiteSpace=wrap;html=1;strokeColor=none;align=center;verticalAlign=middle;fontFamily=Courier New;fontSize=25;fontColor=default;fillColor=default;" parent="1" vertex="1">
          <mxGeometry x="40" y="4450" width="260" height="150" as="geometry" />
        </mxCell>
        <mxCell id="JwdgBAWlF_Tu4NYEgogl-178" value="跳转到(0x102e7)main_task_entry" style="rounded=0;whiteSpace=wrap;html=1;strokeColor=#A50040;align=center;verticalAlign=middle;fontFamily=Courier New;fontSize=20;fontColor=#ffffff;fillColor=#d80073;" parent="1" vertex="1">
          <mxGeometry x="-780" y="4740" width="400" height="60" as="geometry" />
        </mxCell>
        <mxCell id="JwdgBAWlF_Tu4NYEgogl-179" value="" style="endArrow=none;html=1;rounded=0;strokeWidth=4;fontColor=none;noLabel=1;strokeColor=#67AB9F;" parent="1" edge="1">
          <mxGeometry width="50" height="50" relative="1" as="geometry">
            <mxPoint x="-1650" y="4360" as="sourcePoint" />
            <mxPoint x="820" y="4360" as="targetPoint" />
          </mxGeometry>
        </mxCell>
        <mxCell id="JwdgBAWlF_Tu4NYEgogl-180" value="" style="endArrow=none;html=1;rounded=0;strokeWidth=4;fontColor=none;noLabel=1;strokeColor=#67AB9F;" parent="1" edge="1">
          <mxGeometry width="50" height="50" relative="1" as="geometry">
            <mxPoint x="-1650" y="4690" as="sourcePoint" />
            <mxPoint x="820" y="4690" as="targetPoint" />
          </mxGeometry>
        </mxCell>
      </root>
    </mxGraphModel>
  </diagram>
</mxfile>
